<svg width="1400" height="87" viewBox="0 0 1400 87" fill="none" xmlns="http://www.w3.org/2000/svg">
<g clip-path="url(#clip0_265_12636)">
<path d="M1039.36 0.35361C1015.81 -2.74319 929.858 28.6098 929.858 28.6098L858.927 54.2323L929.858 89.8397H1399.26C1399.26 89.8397 1391.02 77.8306 1365.92 77.8306C1330.61 77.8306 1273.79 86.9718 1273.79 86.9718C1256.32 88.5751 1247.14 86.947 1233.09 74.8881C1210.81 48.553 1212 38.2438 1188.74 30.8449C1163.94 22.9585 1136.53 45.44 1112.51 44.5085C1076.08 43.0962 1066.02 3.85897 1039.36 0.35361Z" fill="#F5E3D4"/>
<path d="M564.446 3.47803C511.431 9.18736 452.167 39.438 391.13 70.3577V101.957H1088.56C1088.56 101.957 1078.54 95.4473 1071.28 93.6064C1056.71 89.9164 1036.32 89.9164 1036.32 89.9164C1016.4 88.4534 1007.23 84.6692 993.827 73.5011C993.827 73.5011 945.651 40.7504 923.817 40.7504C893.003 40.7504 874.928 48.5821 845.5 50.2434C816.071 51.9046 802.383 36.147 776.502 29.5775C695.629 9.04819 650.712 5.37452 564.446 3.47803Z" fill="#F79784"/>
<path d="M916.042 44.3824C916.042 44.3824 920.706 42.6214 923.098 42.9925C925.489 43.3636 930.374 45.5443 930.374 45.5443C930.374 45.5443 933.925 46.5127 933.925 49.7406C933.925 49.7406 930.864 49.9729 925.306 48.4817C922.122 47.6275 916.042 44.3824 916.042 44.3824Z" fill="white"/>
<path d="M122.238 53.7911C94.4798 52.2195 43.0824 70.8001 0.560791 86.5001L748.648 86.1311C734.074 79.5855 726.801 76.9853 715.827 74.4787L665.333 70.7887C653.112 68.8085 645.894 65.9544 632.845 60.0482C596.05 46.3115 575.671 40.5143 540.175 36.929C521.478 36.7426 510.998 36.4254 492.284 33.1132C477.763 30.3264 428.366 3.47792 405.642 3.47803C347.635 3.47831 299.847 44.306 233.121 55.7537C192.428 60.2265 156.909 55.7541 122.238 53.7911Z" fill="#78ACD9"/>
</g>
<defs>
<clipPath id="clip0_265_12636">
<rect width="1399" height="86" fill="white" transform="translate(0.560791 0.5)"/>
</clipPath>
</defs>
</svg>
