<svg width="551" height="470" viewBox="0 0 551 470" fill="none" xmlns="http://www.w3.org/2000/svg">
<g opacity="0.3">
<path opacity="0.5" d="M14.061 64.0039C-9.46905 117.393 4.20148 202.402 4.20148 202.402C10.9015 218.302 34.761 243.304 58.561 250.204C83.861 257.504 118.461 256.604 133.461 271.004C141.961 279.204 140.561 289.604 141.661 299.204C144.061 320.404 167.261 342.304 202.161 343.904C245.561 346.004 259.761 363.704 263.161 375.404C263.461 376.404 265.661 376.504 266.161 375.504C274.261 360.104 300.761 347.004 309.861 332.304C317.961 319.204 331.161 305.404 353.561 302.204C367.361 300.304 384.061 302.404 393.961 296.204C402.061 291.104 400.861 283.104 400.661 276.004C400.161 256.804 418.261 234.404 449.861 233.304C459.561 233.004 469.161 234.804 478.761 235.504C490.761 236.404 503.126 241.293 514.161 232.904C561.115 197.211 563.274 108.033 514.161 64.0039C413.159 -26.5432 48.4631 -14.0536 14.061 64.0039Z" fill="#D7D7D7"/>
</g>
<path d="M182.861 179.504L146.461 175.104C144.861 174.904 143.761 173.504 143.961 171.904L148.361 135.504C148.561 133.904 149.961 132.804 151.561 133.004L187.961 137.404C189.561 137.604 190.661 139.004 190.461 140.604L186.061 177.004C185.861 178.604 184.361 179.704 182.861 179.504Z" stroke="#7B95A3" stroke-width="1.0708" stroke-miterlimit="10"/>
<path opacity="0.19" d="M148.261 169.704L151.961 138.904C152.061 138.004 152.961 137.304 153.861 137.404L184.661 141.104C185.561 141.204 186.261 142.104 186.161 143.004L182.461 173.804C182.361 174.704 181.461 175.404 180.561 175.304L149.761 171.604C148.761 171.504 148.061 170.604 148.261 169.704Z" fill="#7B95A3"/>
<path d="M167.961 159.104L164.161 162.104C163.461 162.604 162.461 162.504 161.861 161.804C161.361 161.104 160.261 161.004 159.561 161.504L154.061 166.004C152.961 166.904 153.461 168.704 154.861 168.904L155.561 169.004L168.761 170.604L176.161 171.504C177.561 171.704 178.461 170.004 177.661 168.904L170.261 159.504C169.661 158.704 168.661 158.604 167.961 159.104Z" stroke="#7B95A3" stroke-width="1.0708" stroke-miterlimit="10"/>
<path d="M161.161 152.804C160.961 154.304 159.561 155.504 158.061 155.304C156.561 155.104 155.361 153.704 155.561 152.204C155.761 150.704 157.161 149.504 158.661 149.704C160.261 149.804 161.361 151.204 161.161 152.804Z" stroke="#7B95A3" stroke-width="1.0708" stroke-miterlimit="10"/>
<path d="M175.461 205.604C175.961 208.104 176.361 210.704 176.661 213.204C176.961 215.704 177.161 218.304 177.361 220.804C177.461 223.404 177.561 225.904 177.661 228.504C177.661 231.104 177.661 233.604 177.361 236.204C176.761 233.704 176.461 231.104 176.161 228.604C175.861 226.104 175.661 223.504 175.461 221.004C175.361 218.404 175.261 215.904 175.261 213.304C175.161 210.704 175.261 208.104 175.461 205.604Z" fill="white"/>
<path d="M191.761 221.804C189.161 222.004 186.661 222.104 184.061 222.104C181.461 222.104 178.961 222.004 176.361 221.904C173.761 221.704 171.261 221.504 168.761 221.204C166.261 220.904 163.661 220.604 161.161 220.004C163.761 219.704 166.261 219.704 168.861 219.704C171.461 219.704 173.961 219.804 176.561 219.904C179.161 220.104 181.661 220.304 184.161 220.604C186.661 220.904 189.161 221.204 191.761 221.804Z" fill="white"/>
<path d="M185.661 213.704C184.361 215.204 182.961 216.604 181.461 217.904C179.961 219.204 178.561 220.504 176.961 221.704C175.461 222.904 173.861 224.104 172.161 225.104C170.561 226.204 168.861 227.204 167.061 228.104C168.361 226.604 169.761 225.204 171.261 223.904C172.761 222.604 174.161 221.304 175.761 220.104C177.261 218.904 178.861 217.704 180.561 216.704C182.161 215.604 183.861 214.604 185.661 213.704Z" fill="white"/>
<path d="M168.961 212.204C170.461 213.404 171.961 214.704 173.261 216.104C174.661 217.504 175.961 218.904 177.161 220.304C178.461 221.704 179.561 223.304 180.761 224.804C181.861 226.304 182.961 227.904 183.961 229.604C182.361 228.404 180.961 227.104 179.661 225.704C178.261 224.304 176.961 222.904 175.761 221.504C174.461 220.004 173.361 218.504 172.161 217.004C170.961 215.504 169.861 213.904 168.961 212.204Z" fill="white"/>
<path d="M305.561 80.8039C306.061 83.3039 306.461 85.9039 306.761 88.4039C307.061 90.9039 307.261 93.5039 307.461 96.0039C307.561 98.6039 307.661 101.104 307.761 103.704C307.761 106.304 307.761 108.804 307.461 111.404C306.861 108.904 306.561 106.304 306.261 103.804C305.961 101.304 305.761 98.7039 305.561 96.2039C305.461 93.6039 305.361 91.1039 305.361 88.5039C305.261 85.9039 305.361 83.4039 305.561 80.8039Z" fill="white"/>
<path d="M321.761 97.0039C319.161 97.2039 316.661 97.3039 314.061 97.3039C311.461 97.3039 308.961 97.2039 306.361 97.1039C303.761 96.9039 301.261 96.7039 298.761 96.5039C296.261 96.2039 293.661 95.9039 291.161 95.3039C293.761 95.0039 296.261 95.0039 298.861 95.0039C301.461 95.0039 303.961 95.1039 306.561 95.2039C309.161 95.4039 311.661 95.6039 314.161 95.9039C316.761 96.1039 319.261 96.4039 321.761 97.0039Z" fill="white"/>
<path d="M315.761 88.9039C314.461 90.4039 313.061 91.8039 311.561 93.1039C310.061 94.4039 308.661 95.7039 307.061 96.9039C305.561 98.1039 303.961 99.3039 302.261 100.304C300.661 101.404 298.961 102.404 297.161 103.304C298.461 101.804 299.861 100.404 301.361 99.1039C302.861 97.8039 304.261 96.5039 305.861 95.3039C307.361 94.1039 308.961 92.9039 310.661 91.9039C312.261 90.8039 313.961 89.8039 315.761 88.9039Z" fill="white"/>
<path d="M298.961 87.4039C300.461 88.6039 301.961 89.9039 303.261 91.3039C304.661 92.7039 305.961 94.1039 307.161 95.5039C308.461 96.9039 309.561 98.5039 310.761 100.004C311.861 101.504 312.961 103.104 313.961 104.804C312.361 103.604 310.961 102.304 309.661 100.904C308.261 99.5039 306.961 98.1039 305.761 96.7039C304.461 95.2039 303.361 93.7039 302.161 92.2039C301.061 90.7039 299.961 89.1039 298.961 87.4039Z" fill="white"/>
<path d="M486.261 166.804C486.861 169.904 487.161 172.904 487.361 176.004C487.561 179.104 487.661 182.204 487.361 185.304C486.761 182.204 486.461 179.204 486.261 176.104C486.061 173.004 485.961 169.904 486.261 166.804Z" fill="white"/>
<path d="M496.061 176.604C492.961 176.904 489.861 176.804 486.761 176.604C483.661 176.404 480.561 176.104 477.561 175.504C480.661 175.204 483.761 175.304 486.861 175.504C489.861 175.704 492.961 175.904 496.061 176.604Z" fill="white"/>
<path d="M492.361 171.704C490.761 173.504 488.961 175.004 487.161 176.504C485.261 177.904 483.361 179.304 481.261 180.404C482.861 178.604 484.661 177.104 486.461 175.604C488.261 174.204 490.161 172.804 492.361 171.704Z" fill="white"/>
<path d="M482.261 170.804C484.161 172.304 485.661 173.904 487.261 175.704C488.761 177.504 490.161 179.304 491.361 181.304C489.461 179.804 487.961 178.204 486.361 176.404C484.861 174.704 483.361 172.804 482.261 170.804Z" fill="white"/>
<path d="M39.461 83.9039C40.061 87.0039 40.361 90.0039 40.561 93.1039C40.761 96.2039 40.861 99.3039 40.561 102.404C39.961 99.3039 39.661 96.3039 39.461 93.2039C39.261 90.1039 39.161 87.0039 39.461 83.9039Z" fill="white"/>
<path d="M49.261 93.6039C46.161 93.9039 43.061 93.8039 39.961 93.6039C36.861 93.4039 33.761 93.1039 30.761 92.5039C33.861 92.2039 36.961 92.3039 40.061 92.5039C43.161 92.7039 46.161 93.0039 49.261 93.6039Z" fill="white"/>
<path d="M45.5612 88.8038C43.9612 90.6038 42.1612 92.1038 40.3612 93.6038C38.4612 95.0038 36.5612 96.4038 34.4612 97.5038C36.0612 95.7038 37.8612 94.2038 39.6612 92.7038C41.5612 91.2038 43.4612 89.8038 45.5612 88.8038Z" fill="white"/>
<path d="M35.4612 87.8038C37.3612 89.3038 38.8612 90.9038 40.4612 92.7038C41.9612 94.5038 43.3612 96.3038 44.5612 98.3038C42.6612 96.8038 41.1612 95.2038 39.5612 93.4038C38.0612 91.7038 36.6612 89.9038 35.4612 87.8038Z" fill="white"/>
<path d="M353.361 267.804C358.061 267.304 362.261 264.404 364.261 259.704C367.161 252.904 364.061 245.004 357.261 242.004C350.461 239.104 342.561 242.204 339.561 249.004C337.561 253.604 338.361 258.704 341.261 262.504C339.761 273.604 339.761 273.604 339.761 273.604L346.361 276.404L353.361 267.804Z" stroke="#EFEEE5" stroke-miterlimit="10"/>
<path d="M346.333 276.414L339.812 273.606L338.942 275.626L345.463 278.434L346.333 276.414Z" stroke="#EFEEE5" stroke-miterlimit="10"/>
<path d="M345.398 278.491L338.877 275.683L338.007 277.704L344.528 280.512L345.398 278.491Z" stroke="#EFEEE5" stroke-miterlimit="10"/>
<path d="M338.061 277.604L337.161 279.604C336.361 281.404 337.261 283.504 339.061 284.304C340.861 285.104 342.961 284.204 343.761 282.404L344.661 280.404L338.061 277.604Z" stroke="#EFEEE5" stroke-miterlimit="10"/>
<path d="M340.561 274.004L349.361 253.604C349.061 254.304 349.161 256.104 349.661 256.304C350.161 256.504 351.561 255.304 351.861 254.604C351.561 255.304 351.461 257.004 352.161 257.304C352.861 257.604 354.061 256.304 354.361 255.604L345.561 276.004" stroke="#EFEEE5" stroke-miterlimit="10"/>
<path d="M382.761 81.0039C383.755 81.0039 384.561 80.198 384.561 79.2039C384.561 78.2098 383.755 77.4039 382.761 77.4039C381.767 77.4039 380.961 78.2098 380.961 79.2039C380.961 80.198 381.767 81.0039 382.761 81.0039Z" fill="#FDFDFD"/>
<path d="M491.261 83.9039C492.255 83.9039 493.061 83.098 493.061 82.1039C493.061 81.1098 492.255 80.3039 491.261 80.3039C490.267 80.3039 489.461 81.1098 489.461 82.1039C489.461 83.098 490.267 83.9039 491.261 83.9039Z" fill="#FDFDFD"/>
<path fill-rule="evenodd" clip-rule="evenodd" d="M212.561 198.204C212.561 199.204 211.761 200.004 210.761 200.004C209.761 200.004 208.961 199.204 208.961 198.204C208.961 197.204 209.761 196.404 210.761 196.404C211.761 196.404 212.561 197.204 212.561 198.204Z" fill="#FDFDFD"/>
<path fill-rule="evenodd" clip-rule="evenodd" d="M327.261 149.604C327.261 150.604 326.461 151.404 325.461 151.404C324.461 151.404 323.661 150.604 323.661 149.604C323.661 148.604 324.461 147.804 325.461 147.804C326.461 147.804 327.261 148.604 327.261 149.604Z" fill="#FDFDFD"/>
<path fill-rule="evenodd" clip-rule="evenodd" d="M40.0612 132.904C40.0612 133.904 39.2612 134.704 38.2612 134.704C37.2612 134.704 36.4612 133.904 36.4612 132.904C36.4612 131.904 37.2612 131.104 38.2612 131.104C39.2612 131.104 40.0612 131.904 40.0612 132.904Z" fill="#FDFDFD"/>
<path fill-rule="evenodd" clip-rule="evenodd" d="M410.561 212.204C410.561 213.204 409.761 214.004 408.761 214.004C407.761 214.004 406.961 213.204 406.961 212.204C406.961 211.204 407.761 210.404 408.761 210.404C409.761 210.404 410.561 211.204 410.561 212.204Z" fill="#FDFDFD"/>
<path d="M106.961 79.7039L107.461 91.4039L110.861 87.8039L116.161 87.7039L106.961 79.7039Z" fill="#E40C4A"/>
<path d="M168.661 90.3039C168.661 90.3039 172.361 85.3039 174.461 87.4039C176.561 89.5039 175.761 90.6039 172.461 93.9039C175.861 94.9039 172.461 99.1039 170.861 97.7039C169.361 96.5039 165.261 92.2039 165.261 92.2039C165.261 92.2039 165.361 87.7039 168.661 90.3039Z" fill="#EFEEE5"/>
<path d="M157.761 107.004C157.261 107.004 156.861 106.904 156.461 106.504C154.661 104.704 157.261 101.604 157.561 101.204L165.661 92.7039L166.561 93.5039L158.461 101.904C157.961 102.504 156.461 104.704 157.261 105.504C157.861 106.104 160.161 104.604 161.461 103.304L169.861 95.9039L170.661 96.8039L162.261 104.204C161.861 104.804 159.561 107.004 157.761 107.004Z" fill="#EFEEE5"/>
<path d="M457.661 137.204L451.961 139.704L448.261 150.704L455.461 144.504L456.561 145.504L449.761 152.404L460.861 148.804L463.461 143.204L457.661 137.204Z" fill="#7B95A3"/>
<path d="M459.361 135.804L465.061 141.804L468.061 138.804L461.861 132.904L459.361 135.804Z" stroke="#7B95A3" stroke-width="1.4612" stroke-miterlimit="10"/>
<path d="M417.161 111.404L408.661 102.904L413.261 97.8038L414.361 98.8038L410.661 102.804L417.261 109.304L421.861 105.004L422.861 106.004L417.161 111.404Z" fill="#EFEEE5"/>
<path d="M412.561 97.2039L423.461 107.704L434.161 97.2039L423.661 86.7039L412.561 97.2039Z" fill="#EFEEE5"/>
<path d="M487.861 109.704H474.061V97.2039H484.561L487.861 100.604V109.704ZM475.261 108.504H486.861V101.004L484.261 98.3039H475.361V108.504H475.261Z" fill="#E40C4A"/>
<path d="M484.361 97.8039H482.561V102.204H487.361V100.804L484.361 97.8039Z" fill="#E40C4A"/>
<path d="M487.861 102.804H481.961V97.3039H484.561L487.861 100.704V102.804ZM483.061 101.604H486.761V101.004L484.161 98.3039H483.161V101.604H483.061Z" fill="#E40C4A"/>
<path d="M473.161 97.2039H468.661V98.3039H473.161V97.2039Z" fill="#E40C4A"/>
<path d="M475.161 91.6039H474.061V96.1039H475.161V91.6039Z" fill="#E40C4A"/>
<path d="M75.061 180.604C74.261 178.304 75.461 175.804 77.761 175.004C80.061 174.204 82.561 175.404 83.361 177.704C84.161 180.004 82.961 182.504 80.661 183.304C78.361 184.104 75.861 182.904 75.061 180.604ZM82.061 178.104C81.461 176.504 79.761 175.704 78.161 176.204C76.561 176.804 75.761 178.504 76.261 180.104C76.861 181.704 78.561 182.504 80.161 182.004C81.861 181.404 82.661 179.704 82.061 178.104Z" fill="#EFEEE5"/>
<path d="M62.661 185.604C61.861 183.304 63.061 180.804 65.361 180.004C67.661 179.204 70.161 180.404 70.961 182.704C71.761 185.004 70.561 187.504 68.261 188.304C65.961 189.104 63.461 187.904 62.661 185.604ZM69.661 183.104C69.061 181.504 67.361 180.704 65.761 181.204C64.161 181.804 63.361 183.504 63.861 185.104C64.461 186.704 66.161 187.504 67.761 187.004C69.461 186.404 70.261 184.704 69.661 183.104Z" fill="#EFEEE5"/>
<path d="M71.0612 162.304L68.4612 180.704L69.8612 181.504L73.1612 164.304C73.1612 164.304 73.2612 162.404 71.0612 162.304Z" fill="#EFEEE5"/>
<path d="M61.961 164.804L75.661 177.404L75.061 178.904L61.561 167.704C61.561 167.704 60.261 166.304 61.961 164.804Z" fill="#EFEEE5"/>
<path d="M111.361 163.604L108.561 160.804L111.361 157.904L112.161 158.704L110.061 160.804L112.161 162.804L111.361 163.604Z" fill="#F3FFF9"/>
<path d="M116.061 163.604L113.261 160.804L116.061 157.904L116.861 158.704L114.761 160.804L116.861 162.804L116.061 163.604Z" fill="#F3FFF9"/>
<path d="M348.161 213.504L351.061 210.604L353.861 213.504L353.061 214.204L351.061 212.204L348.961 214.204L348.161 213.504Z" fill="#F3FFF9"/>
<path d="M348.161 218.204L351.061 215.304L353.861 218.204L353.061 218.904L351.061 216.904L348.961 218.904L348.161 218.204Z" fill="#F3FFF9"/>
<path d="M210.861 121.004C210.761 121.004 210.561 120.904 210.461 120.804C210.261 120.604 210.261 120.204 210.461 120.004L216.461 114.304C216.661 114.104 217.061 114.104 217.261 114.304C217.461 114.504 217.461 114.904 217.261 115.104L211.261 120.804C211.061 121.004 210.961 121.004 210.861 121.004Z" fill="#FCE2B0"/>
<path d="M216.661 121.204C216.561 121.204 216.361 121.104 216.261 121.004L210.561 115.004C210.361 114.804 210.361 114.404 210.561 114.204C210.761 114.004 211.161 114.004 211.361 114.204L217.061 120.204C217.261 120.404 217.261 120.804 217.061 121.004C216.961 121.104 216.861 121.204 216.661 121.204Z" fill="#FCE2B0"/>
<path d="M225.761 77.1039L218.961 88.3039" stroke="#304179" stroke-width="1.1939" stroke-miterlimit="10"/>
<path d="M446.261 208.604C446.261 208.604 449.761 203.904 454.461 208.604C459.161 213.304 463.861 208.604 463.861 208.604C463.861 208.604 468.761 205.404 474.161 210.704" stroke="#E40C4A" stroke-width="0.7071" stroke-miterlimit="10"/>
<path d="M386.961 215.804L391.861 226.804" stroke="#304179" stroke-miterlimit="10"/>
<path d="M244.261 169.404L233.361 184.004L249.161 193.704L260.361 179.104L244.261 169.404Z" stroke="#F3E8E8" stroke-miterlimit="10"/>
<path d="M349.361 112.204L361.861 110.104L358.261 122.604L349.361 112.204Z" stroke="#343B9C" stroke-miterlimit="10"/>
<path d="M36.5608 210.804C36.5608 210.804 31.8608 207.304 36.5608 202.604C41.2608 197.904 36.5608 193.204 36.5608 193.204C36.5608 193.204 33.3608 188.304 38.6608 182.904" stroke="#343B9C" stroke-miterlimit="10"/>
<path d="M168.961 251.004L174.361 255.704" stroke="#304179" stroke-miterlimit="10"/>
<path d="M70.361 101.604L91.761 119.204L113.161 101.604" stroke="#7B95A3" stroke-width="1.0708" stroke-miterlimit="10"/>
<path d="M113.061 101.604H70.361V133.704H113.061V101.604Z" stroke="#7B95A3" stroke-width="1.0708" stroke-miterlimit="10"/>
<path d="M70.361 133.704L83.961 113.204" stroke="#7B95A3" stroke-width="1.0708" stroke-miterlimit="10"/>
<path d="M98.961 113.204L113.161 133.704" stroke="#7B95A3" stroke-width="1.0708" stroke-miterlimit="10"/>
<path d="M389.661 153.104V173.404" stroke="#EFEEE5" stroke-miterlimit="10"/>
<path d="M383.861 159.204L389.661 153.104L395.061 159.604" stroke="#EFEEE5" stroke-miterlimit="10"/>
<path d="M417.961 159.904C417.961 159.704 418.061 159.504 418.061 159.304C418.061 154.704 414.161 151.004 409.461 151.004C408.361 151.004 407.361 151.204 406.461 151.604C406.361 151.604 406.361 151.604 406.261 151.604H406.161C405.261 142.604 397.461 135.504 387.861 135.504C377.961 135.504 369.861 143.104 369.461 152.604C368.561 152.404 367.561 152.304 366.561 152.304C357.961 152.304 350.961 159.004 350.961 167.304C350.961 175.604 357.961 182.304 366.561 182.304C366.561 182.304 414.861 182.504 415.661 182.504C422.361 182.504 427.861 177.404 427.861 171.104C427.861 165.504 423.661 160.904 417.961 159.904Z" stroke="#EFEEE5" stroke-miterlimit="10"/>
<path d="M122.461 297.504C122.261 296.704 121.861 296.004 121.161 295.604C120.461 295.104 119.561 295.004 118.761 295.004V293.704H100.461V308.204C100.461 313.204 104.561 315.504 109.561 315.504C114.561 315.504 118.661 313.204 118.661 308.204V305.704C119.161 305.704 119.561 305.604 120.061 305.304C121.261 304.704 122.161 303.504 122.361 302.104C122.661 300.904 122.861 299.204 122.461 297.504ZM121.161 301.904C120.961 302.904 120.361 303.704 119.561 304.104C119.261 304.304 118.961 304.304 118.761 304.304V296.304C119.361 296.304 119.961 296.404 120.461 296.704C120.861 296.904 121.061 297.304 121.161 297.704C121.461 299.304 121.361 300.804 121.161 301.904Z" fill="#EFEEE5"/>
<path d="M107.761 240.104C104.461 238.004 101.161 235.904 98.0606 233.504C94.9606 231.104 92.1606 228.304 89.9606 225.004C87.8606 221.704 86.3606 217.904 86.1606 213.904C85.9606 209.904 87.2606 205.904 89.6606 202.704C91.9606 199.504 95.2606 196.904 98.8606 195.304C102.561 193.704 106.561 193.204 110.561 193.404C114.561 193.704 118.461 194.704 122.061 196.304C125.661 197.904 129.161 199.904 132.061 202.704C133.461 204.104 134.761 205.704 135.761 207.404C136.761 209.104 137.661 210.904 138.161 212.904C139.361 216.704 139.661 220.804 139.361 224.704C139.161 226.704 138.861 228.604 138.261 230.604C137.761 232.504 136.961 234.404 136.161 236.204C134.461 239.804 132.261 243.104 129.761 246.204C127.261 249.304 124.361 252.004 121.361 254.604C118.361 257.204 115.061 259.304 112.461 262.204C107.061 267.704 105.861 276.804 109.461 283.604L108.861 284.004C106.061 280.604 102.161 278.204 98.7606 275.204C97.9606 274.404 97.1606 273.604 96.4606 272.704C95.7606 271.804 95.1606 270.804 94.7606 269.704C93.8606 267.604 93.7606 265.204 94.3606 263.004C94.9606 260.804 96.0606 258.804 97.3606 256.904C98.6606 255.104 100.161 253.404 101.761 251.804C103.361 250.204 104.861 248.604 106.161 246.704C107.361 244.604 108.061 242.404 107.761 240.104C108.161 242.304 107.461 244.604 106.261 246.504C105.061 248.404 103.461 250.104 101.961 251.704C100.461 253.304 98.9606 255.004 97.6606 256.904C96.3606 258.704 95.3606 260.704 94.8606 262.904C94.3606 265.004 94.4606 267.304 95.3606 269.304C96.1606 271.304 97.6606 273.004 99.3606 274.504C102.661 277.504 106.661 279.804 109.561 283.304L108.961 283.704C107.061 280.204 106.461 276.004 106.961 272.104C107.461 268.104 109.261 264.304 111.961 261.404C114.661 258.504 117.961 256.304 120.961 253.704C123.961 251.204 126.761 248.404 129.161 245.404C134.061 239.404 137.761 232.204 138.461 224.504C138.761 220.704 138.461 216.704 137.361 213.104C136.761 211.304 135.961 209.504 135.061 207.804C134.061 206.104 132.861 204.604 131.561 203.304C128.761 200.604 125.361 198.604 121.861 197.004C118.361 195.504 114.561 194.404 110.661 194.204C106.861 193.904 102.861 194.404 99.3606 195.904C95.8606 197.404 92.6606 199.804 90.3606 203.004C88.0606 206.104 86.7606 209.904 86.8606 213.804C86.9606 217.704 88.3606 221.404 90.4606 224.704C92.5606 228.004 95.3606 230.804 98.3606 233.304C101.161 235.804 104.461 238.004 107.761 240.104Z" fill="#EFEEE5"/>
<g opacity="0.39">
<g opacity="0.39">
<path opacity="0.39" d="M337.061 458.604C315.961 459.304 294.861 459.604 273.761 459.704C252.861 459.804 231.961 459.704 210.961 459.604C198.761 459.504 186.561 459.504 174.361 459.404C174.761 462.504 175.161 465.504 175.561 468.604C176.361 468.404 177.161 468.204 178.061 468.004C178.561 467.904 179.061 467.804 179.661 467.704C179.861 467.704 180.061 467.604 180.361 467.604C179.061 467.704 180.161 467.604 180.461 467.604C182.861 467.304 185.261 467.204 187.661 467.004C193.161 466.704 198.661 466.704 204.161 466.704C215.661 466.804 227.161 466.904 238.661 467.004C258.661 467.204 278.761 467.204 298.761 467.404C311.561 467.504 324.261 467.604 337.061 467.704C339.461 467.704 341.861 465.504 341.761 463.004C341.661 460.704 339.761 458.604 337.061 458.604C315.961 458.304 294.761 458.204 273.661 458.004C266.761 457.904 259.861 457.804 253.061 457.704C250.661 457.704 248.261 459.904 248.361 462.404C248.461 465.004 250.461 467.004 253.061 467.104C274.161 467.404 295.361 467.504 316.461 467.704C323.361 467.804 330.261 467.904 337.061 468.004C337.061 464.804 337.061 461.704 337.061 458.604C315.461 458.404 293.761 458.204 272.161 458.104C250.661 458.004 229.061 457.804 207.561 457.604C201.361 457.504 195.061 457.504 188.861 457.804C183.661 458.004 178.261 458.304 173.161 459.704C168.061 461.004 169.161 468.904 174.361 468.904C195.761 468.904 217.161 469.104 238.561 469.204C259.361 469.304 280.261 469.304 301.061 468.904C313.061 468.704 325.061 468.404 337.061 468.004C339.461 467.904 341.861 465.904 341.761 463.304C341.661 460.804 339.661 458.504 337.061 458.604Z" fill="#A9BCC6"/>
</g>
</g>
<path d="M222.461 367.704L222.261 370.304L213.861 462.804H216.261L230.761 370.804L222.461 367.704Z" fill="#343B9C"/>
<path d="M251.061 370.904L260.061 464.404H263.161L259.361 370.904H251.061Z" fill="#343B9C"/>
<path d="M277.26 368.404L305.86 463.404L308.66 463.704L286.06 367.704L277.26 368.404Z" fill="#343B9C"/>
<path d="M227.16 384.104C241.26 385.404 258.56 386.404 274.06 385.604C289.66 384.804 301.46 370.904 299.76 355.304L296.76 327.504C294.86 303.504 274.56 285.204 250.46 285.804C226.96 286.404 207.76 304.904 206.36 328.304L202.76 352.704C200.26 368.304 211.46 382.604 227.16 384.104Z" fill="#F3F3F1"/>
<path d="M212.961 337.204L212.061 354.104L244.761 370.904L292.861 360.704L286.561 338.504L212.961 337.204Z" fill="#9A9A9A"/>
<path d="M245.261 364.804L216.761 376.704L221.061 387.904L253.461 377.404L245.261 364.804Z" fill="#FFA49C"/>
<path d="M218.761 374.704L224.061 387.904L208.561 393.204C205.261 394.304 197.961 394.504 196.861 391.104C195.861 388.004 200.961 382.704 203.961 381.304L218.761 374.704Z" fill="#EFEEE5"/>
<path d="M202.76 382.004C203.86 383.804 204.76 385.604 205.66 387.504C206.06 388.504 206.46 389.404 206.76 390.404C207.06 391.404 207.36 392.404 207.36 393.504C207.36 393.704 207.26 393.804 207.06 393.804C206.86 393.804 206.76 393.704 206.76 393.504C206.76 392.504 206.46 391.504 206.16 390.604C205.86 389.604 205.46 388.704 205.06 387.704C204.26 385.804 203.26 384.004 202.16 382.304C202.06 382.104 202.16 381.904 202.26 381.804C202.46 381.704 202.66 381.804 202.76 382.004Z" fill="#4D5578"/>
<path d="M209.261 383.204C209.861 383.804 210.261 384.604 210.661 385.304C210.961 386.104 211.161 386.904 211.161 387.804C211.161 388.004 211.061 388.104 210.861 388.104C210.661 388.104 210.561 388.004 210.561 387.804C210.561 387.004 210.461 386.304 210.161 385.504C209.861 384.804 209.461 384.104 208.961 383.504C208.861 383.404 208.861 383.204 208.961 383.104C208.961 383.104 209.161 383.104 209.261 383.204Z" fill="#4D5578"/>
<path d="M212.261 381.904C212.561 382.204 212.761 382.604 213.061 382.904C213.261 383.304 213.461 383.604 213.661 384.004C213.961 384.804 214.161 385.604 214.061 386.504C214.061 386.604 213.961 386.704 213.861 386.704C213.761 386.704 213.661 386.604 213.661 386.504C213.661 385.704 213.461 384.904 213.161 384.204C213.061 383.804 212.861 383.504 212.661 383.204C212.461 382.904 212.161 382.604 211.961 382.304C211.861 382.204 211.861 382.004 211.961 381.804C211.961 381.704 212.161 381.704 212.261 381.904C212.261 381.804 212.261 381.804 212.261 381.904Z" fill="#4D5578"/>
<path d="M216.06 380.704C216.36 381.004 216.66 381.404 216.86 381.704C217.06 382.104 217.26 382.404 217.46 382.804C217.76 383.604 217.96 384.404 217.96 385.304C217.96 385.504 217.76 385.704 217.56 385.704C217.36 385.704 217.16 385.504 217.16 385.304C217.16 384.504 217.06 383.804 216.76 383.004C216.46 382.304 216.06 381.604 215.56 381.004C215.46 380.904 215.46 380.704 215.56 380.604C215.76 380.504 215.96 380.504 216.06 380.704Z" fill="#4D5578"/>
<path d="M217.861 375.604L225.161 373.204L230.361 384.904L222.461 387.904L217.861 375.604Z" fill="#EFEEE5"/>
<path d="M241.461 364.104C241.461 364.104 302.161 326.704 321.961 331.104C341.761 335.504 334.761 358.404 267.861 376.004L249.561 380.804L241.461 364.104Z" fill="#989595"/>
<path d="M246.261 358.304L274.761 370.204L270.461 381.404L238.061 370.904L246.261 358.304Z" fill="#FFA49C"/>
<path d="M272.761 368.204L267.461 381.404L282.961 386.704C286.261 387.804 293.561 388.004 294.661 384.604C295.661 381.504 290.561 376.204 287.561 374.804L272.761 368.204Z" fill="#EFEEE5"/>
<path d="M289.361 375.804C288.261 377.504 287.361 379.404 286.461 381.204C286.061 382.104 285.661 383.104 285.361 384.104C285.061 385.104 284.761 386.104 284.761 387.004C284.761 387.204 284.661 387.304 284.461 387.304C284.261 387.304 284.161 387.204 284.161 387.004C284.161 385.904 284.461 384.904 284.761 383.904C285.061 382.904 285.461 381.904 285.861 381.004C286.661 379.104 287.661 377.304 288.761 375.504C288.861 375.304 289.061 375.304 289.261 375.404C289.361 375.404 289.461 375.604 289.361 375.804Z" fill="#4D5578"/>
<path d="M282.661 377.204C282.161 377.704 281.761 378.404 281.461 379.204C281.161 379.904 281.061 380.704 281.061 381.504C281.061 381.704 280.961 381.804 280.761 381.804C280.561 381.804 280.461 381.704 280.461 381.504C280.461 380.604 280.661 379.804 280.961 379.004C281.261 378.204 281.761 377.504 282.361 376.904C282.461 376.804 282.661 376.804 282.761 376.904C282.861 376.804 282.861 377.004 282.661 377.204Z" fill="#4D5578"/>
<path d="M279.661 375.804C279.461 376.104 279.161 376.404 278.961 376.704C278.761 377.004 278.561 377.404 278.461 377.704C278.161 378.404 277.961 379.204 277.961 380.004C277.961 380.104 277.861 380.204 277.761 380.204C277.661 380.204 277.561 380.104 277.561 380.004C277.561 379.204 277.661 378.304 277.961 377.504C278.061 377.104 278.261 376.704 278.561 376.404C278.761 376.004 279.061 375.704 279.361 375.404C279.461 375.304 279.661 375.304 279.861 375.404C279.861 375.404 279.861 375.604 279.661 375.804Z" fill="#4D5578"/>
<path d="M275.861 374.604C275.361 375.104 274.961 375.804 274.661 376.604C274.361 377.304 274.261 378.104 274.261 378.804C274.261 379.004 274.061 379.204 273.861 379.204C273.661 379.204 273.461 379.004 273.461 378.804C273.461 377.904 273.661 377.104 273.961 376.304C274.161 375.904 274.361 375.504 274.561 375.204C274.761 374.804 275.061 374.504 275.361 374.204C275.461 374.104 275.661 374.104 275.761 374.204C275.961 374.304 275.961 374.404 275.861 374.604Z" fill="#4D5578"/>
<path d="M273.661 369.104L266.361 366.704L261.161 378.404L269.061 381.404L273.661 369.104Z" fill="#EFEEE5"/>
<path d="M250.061 357.604C250.061 357.604 189.361 320.204 169.561 324.604C149.761 329.004 156.761 351.904 223.661 369.504L241.961 374.304L250.061 357.604Z" fill="#B1B0B0"/>
<path d="M312.26 227.404C306.26 241.004 295.66 259.604 295.66 259.604L290.16 239.704C290.16 239.704 295.96 231.404 302.26 224.204C303.26 219.204 305.96 211.404 312.36 199.304L313.76 195.904C313.76 195.904 315.76 185.204 316.26 184.604C316.76 183.904 316.56 188.104 316.56 188.104C316.56 188.104 317.46 184.204 318.26 183.204C318.86 182.404 318.66 187.804 318.66 187.804C320.76 182.204 320.46 182.404 320.76 182.204C321.46 181.804 320.16 188.504 320.16 188.504C320.16 188.504 321.56 184.204 322.36 184.104C323.16 184.004 321.46 192.404 321.46 192.404C321.46 192.404 323.06 191.204 324.86 191.504C325.36 191.604 325.56 192.104 325.56 192.504C323.26 192.904 320.26 197.804 320.26 197.804C320.26 197.804 318.86 208.604 315.86 218.404C315.76 218.904 315.56 219.404 315.36 220.004C314.36 222.604 313.36 225.204 312.26 227.404Z" fill="#FFA49C"/>
<path d="M128.66 284.504C128.66 284.504 122.06 282.904 122.66 282.404C122.96 282.204 122.66 282.404 128.56 282.904C128.56 282.904 123.56 280.904 124.56 280.604C125.76 280.304 129.66 281.104 129.66 281.104C129.66 281.104 125.86 279.504 126.66 279.304C127.46 279.104 137.96 281.804 137.96 281.804L141.56 281.904C155.26 281.304 163.46 282.104 168.36 283.304C177.56 280.604 187.56 278.804 187.56 278.804L203.26 292.104C203.26 292.104 181.86 293.904 167.06 293.604C164.56 293.704 161.76 293.504 158.96 293.204C158.36 293.104 157.86 293.104 157.36 293.004C147.26 291.604 136.86 288.304 136.86 288.304C136.86 288.304 131.16 288.904 129.76 290.904C129.46 290.804 129.06 290.304 129.16 289.804C129.66 288.004 131.46 287.104 131.46 287.104C131.46 287.104 123.16 285.104 123.56 284.404C124.26 284.004 128.66 284.504 128.66 284.504Z" fill="#FFA49C"/>
<path d="M289.661 234.304C289.661 234.304 272.161 256.104 250.361 261.604C227.261 267.504 207.46 270.404 186.76 278.604L191.46 299.904L214.561 296.104C214.561 296.104 212.46 321.104 212.46 338.604H286.561C286.561 338.604 282.26 313.104 280.061 295.804C279.061 288.104 281.661 280.304 287.161 274.804L308.46 253.104L289.661 234.304Z" fill="#FFE0E3"/>
<path d="M257.46 236.004C258.26 235.304 260.96 233.004 260.96 230.704C260.96 228.404 258.86 227.604 259.36 225.504C259.96 223.504 261.06 218.104 253.96 218.004C246.86 217.904 248.46 220.504 245.36 218.404C242.36 216.204 240.26 215.304 238.36 217.104C236.46 218.904 238.86 222.704 237.56 222.604C236.26 222.604 235.46 220.604 233.46 222.504C231.46 224.404 234.46 225.404 233.36 226.404C232.36 227.404 231.26 232.704 235.16 235.504C236.36 236.304 256.66 236.704 257.46 236.004Z" fill="#222947"/>
<path d="M259.261 237.604C259.061 236.804 258.361 236.104 257.361 236.004C257.561 234.304 257.561 232.504 257.461 230.504C257.361 229.204 257.161 227.804 256.661 226.604C255.061 222.704 251.861 220.104 247.561 220.004C241.561 219.904 237.861 223.004 235.861 229.204C235.261 231.104 234.961 233.404 235.061 235.604C234.261 235.604 233.661 236.004 233.261 236.604C232.261 238.004 233.361 239.904 235.061 240.104C235.261 240.104 235.361 240.104 235.561 240.104C236.161 243.104 237.261 245.704 238.661 247.204L236.861 265.004C236.661 267.304 237.861 269.504 239.961 270.404C245.061 272.604 249.461 271.504 252.061 270.304C253.761 269.504 254.761 267.804 254.561 266.004L253.161 247.504C253.161 247.504 255.261 245.304 256.461 240.504H256.861C258.561 240.304 259.661 239.004 259.261 237.604Z" fill="#FFA49C"/>
<path d="M238.661 247.104C242.561 250.404 246.661 252.204 253.261 247.404C253.261 247.404 246.661 255.204 238.161 251.804L238.661 247.104Z" fill="#EE7C78"/>
<path d="M257.461 239.304C257.561 238.904 257.761 238.604 257.861 238.304C257.961 238.104 257.961 238.004 257.861 237.904C257.861 237.804 257.661 237.604 257.561 237.504C257.761 237.504 257.961 237.504 258.161 237.704C258.361 237.904 258.361 238.204 258.261 238.404C258.161 238.804 257.861 239.104 257.461 239.304Z" fill="#EE7C78"/>
<path d="M234.861 238.704C234.461 238.504 234.261 238.204 234.061 237.704C234.061 237.504 234.061 237.204 234.261 237.004C234.461 236.804 234.661 236.804 234.861 236.804C234.761 236.904 234.561 237.104 234.561 237.204C234.561 237.304 234.461 237.504 234.561 237.604C234.561 237.904 234.761 238.304 234.861 238.704Z" fill="#EE7C78"/>
<path d="M240.361 220.404C236.561 222.804 232.761 228.304 233.961 232.104C234.461 232.904 234.861 234.004 235.061 235.404C235.061 235.404 235.461 229.604 237.261 228.304C239.061 227.104 239.661 225.604 240.461 223.104C240.461 223.104 244.661 221.604 247.961 225.004C252.761 230.004 256.461 227.804 256.461 227.804C256.461 227.804 255.061 234.704 257.361 235.904C260.961 218.504 245.861 217.004 240.361 220.404Z" fill="#222947"/>
<path d="M254.061 239.604C254.061 240.404 253.061 241.104 251.861 241.204C250.561 241.204 249.561 240.604 249.561 239.804C249.561 239.004 250.561 238.304 251.761 238.204C252.961 238.104 254.061 238.704 254.061 239.604Z" fill="#FF938F"/>
<path d="M242.161 239.704C242.061 240.504 240.961 241.104 239.661 240.904C238.361 240.704 237.461 239.904 237.561 239.104C237.661 238.304 238.761 237.704 240.061 237.904C241.361 238.104 242.261 238.904 242.161 239.704Z" fill="#FF938F"/>
<path d="M245.161 235.604C245.161 237.704 243.361 239.404 241.161 239.404C239.061 239.404 237.361 237.604 237.361 235.404C237.361 233.304 239.161 231.604 241.361 231.604C243.561 231.704 245.261 233.504 245.161 235.604Z" stroke="#222947" stroke-width="0.4277" stroke-miterlimit="10"/>
<path d="M251.966 239.403C254.009 238.721 255.113 236.512 254.431 234.469C253.749 232.426 251.54 231.323 249.497 232.005C247.454 232.687 246.35 234.896 247.032 236.939C247.714 238.982 249.923 240.085 251.966 239.403Z" stroke="#222947" stroke-width="0.4277" stroke-miterlimit="10"/>
<path d="M244.861 233.504C244.861 233.504 245.761 233.004 247.361 233.604" stroke="#222947" stroke-width="0.4277" stroke-miterlimit="10"/>
<path d="M241.96 236.004C241.96 236.504 241.66 236.904 241.26 236.904C240.86 236.904 240.66 236.504 240.66 236.004C240.66 235.504 240.96 235.104 241.36 235.104C241.66 235.104 241.96 235.504 241.96 236.004Z" fill="#222947"/>
<path d="M251.36 236.204C251.36 236.704 251.06 237.104 250.66 237.104C250.26 237.104 250.06 236.704 250.06 236.204C250.06 235.704 250.36 235.304 250.76 235.304C251.16 235.304 251.36 235.704 251.36 236.204Z" fill="#222947"/>
<path d="M243.66 241.004C244.46 241.804 245.26 242.304 246.16 242.304C246.66 242.304 247.06 242.104 247.56 241.904L248.26 241.504C248.46 241.404 248.66 241.204 248.96 241.104C248.86 241.304 248.66 241.504 248.46 241.804C248.26 242.004 248.06 242.204 247.86 242.404C247.36 242.704 246.86 243.004 246.26 243.004C245.66 243.004 245.06 242.804 244.66 242.404C244.06 242.104 243.76 241.604 243.66 241.004Z" fill="#EE7C78"/>
<path d="M245.66 238.704C246.06 238.204 246.56 237.804 247.06 237.504V238.204C246.66 237.804 246.36 237.404 246.26 237.004C246.16 236.604 246.06 236.104 246.16 235.604L246.86 236.704C247.06 237.004 247.36 237.304 247.56 237.504L248.06 237.804L247.46 238.204C246.96 238.504 246.46 238.804 245.76 238.904C245.66 238.904 245.56 238.904 245.56 238.804C245.56 238.804 245.66 238.804 245.66 238.704Z" fill="#EE7C78"/>
<path d="M126.361 290.404L143.061 267.804C143.361 267.404 143.861 267.304 144.261 267.604H144.361C144.761 267.904 144.861 268.404 144.561 268.804L127.861 291.404C127.561 291.804 127.061 291.904 126.661 291.604H126.561C126.161 291.304 126.161 290.804 126.361 290.404Z" fill="#989595"/>
<path d="M284.761 262.804H213.26V316.104H284.761V262.804Z" fill="#C6C0C2"/>
<path d="M252.06 282.804C253.76 284.504 253.76 287.204 252.06 288.904C250.36 290.604 247.66 290.604 245.96 288.904C244.26 287.204 244.26 284.504 245.96 282.804C247.66 281.104 250.36 281.104 252.06 282.804Z" fill="#EEEEEE"/>
<path d="M207.06 313.704H150.66V315.504H207.06V313.704Z" fill="#C6C0C2"/>
<path d="M471.561 316.004H50.8606V326.004H71.0606L75.5606 463.304H79.5606V326.004H135.061L141.561 463.304H146.161L144.161 326.004H350.861L355.361 463.304H359.561L359.361 326.004H420.961L427.461 463.304H431.961L429.961 326.004H471.561V316.004Z" stroke="#EFEEE5" stroke-width="1.0708" stroke-miterlimit="10"/>
<path fill-rule="evenodd" clip-rule="evenodd" d="M253.861 141.204C253.861 141.204 253.861 141.304 253.861 141.204C254.061 144.604 257.361 147.104 261.261 146.904C264.761 146.704 267.561 144.204 267.861 141.204H253.861Z" fill="white"/>
<path opacity="0.22" d="M233.761 141.204L107.261 313.904L407.061 313.804L288.561 141.204H233.761Z" fill="url(#paint0_linear_265_16345)"/>
<path fill-rule="evenodd" clip-rule="evenodd" d="M277.261 132.204C266.861 128.004 266.161 126.504 266.161 126.504C266.161 126.504 266.161 120.804 260.661 121.004C257.861 121.104 255.761 123.704 255.961 126.504C255.961 126.604 253.661 129.704 243.761 132.604C233.761 135.504 233.761 141.204 233.761 141.204H288.561C286.561 134.504 277.261 132.204 277.261 132.204Z" stroke="#7B95A3" stroke-width="1.0708" stroke-miterlimit="10"/>
<path d="M260.66 54.0039V121.004" stroke="#7B95A3" stroke-width="1.0708" stroke-miterlimit="10"/>
<defs>
<linearGradient id="paint0_linear_265_16345" x1="257.178" y1="313.873" x2="257.178" y2="141.226" gradientUnits="userSpaceOnUse">
<stop offset="0.00337088" stop-color="white" stop-opacity="0"/>
<stop offset="1" stop-color="#FDFDFD"/>
</linearGradient>
</defs>
</svg>
