<svg width="401" height="374" viewBox="0 0 401 374" fill="none" xmlns="http://www.w3.org/2000/svg">
<path d="M341.274 232.102C434.727 151.699 324.12 70.2041 246.01 47.6289C169.058 25.388 73.7149 29.1782 47.9067 118.474C-18.4256 347.982 180.828 370.044 341.274 232.102Z" fill="#C8DEF1"/>
<path d="M210.878 120.062H124.616L130.994 58.6128H218.034L210.878 120.062Z" fill="#263238"/>
<path d="M206.522 120.062H120.26L126.638 58.6129H213.6L206.522 120.062Z" fill="#455A64"/>
<path d="M203.333 117.34H123.293L129.205 60.2465H209.867L203.333 117.34Z" fill="#F5F5F5"/>
<path d="M131.927 107.772C131.85 107.772 132.628 99.2162 133.716 88.6376C134.805 78.059 135.817 69.5027 135.894 69.5027C135.972 69.5027 135.194 78.059 134.105 88.6376C133.016 99.2162 132.005 107.772 131.927 107.772Z" fill="#263238"/>
<path d="M146.473 71.4476C146.473 71.5254 144.684 71.6809 142.428 71.6809C140.173 71.6809 138.384 71.6032 138.384 71.4476C138.384 71.3698 140.173 71.2142 142.428 71.2142C144.684 71.2142 146.473 71.292 146.473 71.4476Z" fill="#263238"/>
<path d="M180.698 71.4477C180.698 71.5255 173.542 71.6811 164.675 71.6811C155.807 71.6811 148.651 71.6033 148.651 71.4477C148.651 71.37 155.807 71.2144 164.675 71.2144C173.542 71.2144 180.698 71.2922 180.698 71.4477Z" fill="#5E79B7"/>
<path d="M145.54 91.6714C145.54 91.7492 143.751 91.9048 141.495 91.9048C139.24 91.9048 137.45 91.827 137.45 91.6714C137.45 91.5936 139.24 91.438 141.495 91.438C143.751 91.5158 145.54 91.5936 145.54 91.6714Z" fill="#263238"/>
<path d="M179.766 91.6714C179.766 91.7492 172.609 91.9047 163.742 91.9047C154.875 91.9047 147.718 91.8269 147.718 91.6714C147.718 91.5936 154.875 91.438 163.742 91.438C172.609 91.5158 179.766 91.5936 179.766 91.6714Z" fill="#5E79B7"/>
<path d="M168.875 101.005C168.875 101.083 161.719 101.239 152.852 101.239C143.984 101.239 136.828 101.161 136.828 101.005C136.828 100.85 143.984 100.772 152.852 100.772C161.641 100.85 168.875 100.928 168.875 101.005Z" fill="#5E79B7"/>
<path d="M150.052 77.1256C150.052 77.2034 147.485 77.3589 144.373 77.3589C141.262 77.3589 138.695 77.2812 138.695 77.1256C138.695 76.97 141.262 76.8922 144.373 76.8922C147.485 76.97 150.052 77.0478 150.052 77.1256Z" fill="#5E79B7"/>
<path d="M149.74 85.5265C149.74 85.6043 147.173 85.7599 144.062 85.7599C140.95 85.7599 138.384 85.6821 138.384 85.5265C138.384 85.4487 140.95 85.2932 144.062 85.2932C147.251 85.2932 149.74 85.4487 149.74 85.5265Z" fill="#5E79B7"/>
<path d="M159.308 97.5052C159.308 97.583 156.741 97.7386 153.63 97.7386C150.518 97.7386 147.951 97.6608 147.951 97.5052C147.951 97.4274 150.518 97.2719 153.63 97.2719C156.819 97.3496 159.308 97.4274 159.308 97.5052Z" fill="#5E79B7"/>
<path d="M191.199 77.1256C191.199 77.2034 184.743 77.359 176.731 77.359C168.719 77.359 162.263 77.2812 162.263 77.1256C162.263 76.9701 168.719 76.8923 176.731 76.8923C184.743 76.9701 191.199 77.0478 191.199 77.1256Z" fill="#263238"/>
<path d="M182.254 85.9931C182.254 86.0709 175.798 86.2265 167.786 86.2265C159.774 86.2265 153.318 86.1487 153.318 85.9931C153.318 85.8376 159.774 85.7598 167.786 85.7598C175.798 85.8375 182.254 85.9153 182.254 85.9931Z" fill="#263238"/>
<path d="M192.21 97.5054C192.21 97.5831 185.754 97.7387 177.742 97.7387C169.73 97.7387 163.274 97.6609 163.274 97.5054C163.274 97.4276 169.73 97.272 177.742 97.272C185.754 97.3498 192.21 97.4276 192.21 97.5054Z" fill="#263238"/>
<path d="M165.841 107.772C165.841 107.85 159.385 108.006 151.373 108.006C143.361 108.006 136.905 107.928 136.905 107.772C136.905 107.617 143.361 107.539 151.373 107.539C159.385 107.617 165.841 107.694 165.841 107.772Z" fill="#263238"/>
<path d="M197.732 107.772C197.732 107.85 191.276 108.006 183.264 108.006C175.253 108.006 168.797 107.928 168.797 107.772C168.797 107.617 175.253 107.539 183.264 107.539C191.276 107.617 197.732 107.695 197.732 107.772Z" fill="#263238"/>
<path d="M165.841 111.117C165.841 111.195 159.385 111.351 151.373 111.351C143.361 111.351 136.905 111.273 136.905 111.117C136.905 110.962 143.361 110.884 151.373 110.884C159.385 110.962 165.841 111.04 165.841 111.117Z" fill="#263238"/>
<path d="M167.242 79.5372C167.242 79.615 160.785 79.7706 152.774 79.7706C144.762 79.7706 138.306 79.6928 138.306 79.5372C138.306 79.4594 144.762 79.3039 152.774 79.3039C160.785 79.3816 167.242 79.4594 167.242 79.5372Z" fill="#263238"/>
<path d="M159.541 77.2034C159.541 77.2812 157.907 77.4368 155.807 77.4368C153.785 77.4368 152.074 77.359 152.074 77.2034C152.074 77.1256 153.707 76.9701 155.807 76.9701C157.83 76.9701 159.541 77.0478 159.541 77.2034Z" fill="#455A64"/>
<path d="M144.607 94.4718C144.607 94.5496 142.973 94.7051 140.873 94.7051C138.851 94.7051 137.139 94.6273 137.139 94.4718C137.139 94.394 138.773 94.2384 140.873 94.2384C142.973 94.2384 144.607 94.3162 144.607 94.4718Z" fill="#455A64"/>
<path d="M144.451 97.5052C144.451 97.583 142.818 97.7386 140.718 97.7386C138.695 97.7386 136.984 97.6608 136.984 97.5052C136.984 97.4275 138.618 97.2719 140.718 97.2719C142.74 97.3497 144.451 97.4275 144.451 97.5052Z" fill="#455A64"/>
<path d="M208.856 66.3912C208.856 66.4689 190.888 66.6245 168.642 66.6245C146.396 66.6245 128.427 66.5467 128.427 66.3912C128.427 66.3134 146.396 66.1578 168.642 66.1578C190.888 66.1578 208.856 66.2356 208.856 66.3912Z" fill="#263238"/>
<path d="M134.883 63.669C134.883 64.2135 134.494 64.6024 133.95 64.6024C133.405 64.6024 133.016 64.2135 133.016 63.669C133.016 63.1245 133.405 62.7356 133.95 62.7356C134.494 62.7356 134.883 63.1245 134.883 63.669Z" fill="white"/>
<path d="M138.928 63.6689C138.928 64.2134 138.539 64.6023 137.995 64.6023C137.45 64.6023 137.061 64.2134 137.061 63.6689C137.061 63.1244 137.45 62.7355 137.995 62.7355C138.539 62.7355 138.928 63.1244 138.928 63.6689Z" fill="white"/>
<path d="M143.051 63.669C143.051 64.2135 142.662 64.6024 142.117 64.6024C141.573 64.6024 141.184 64.2135 141.184 63.669C141.184 63.1245 141.573 62.7356 142.117 62.7356C142.662 62.7356 143.051 63.1245 143.051 63.669Z" fill="white"/>
<path d="M324.209 121.929H233.513L240.202 57.2907H331.676L324.209 121.929Z" fill="#263238"/>
<path d="M319.62 121.929H228.846L235.535 57.2907H327.087L319.62 121.929Z" fill="#455A64"/>
<path d="M316.197 119.051H232.035L238.258 59.0019H323.198L316.197 119.051Z" fill="#EBEBEB"/>
<path d="M241.214 108.084C241.136 108.084 241.914 99.0609 243.081 87.9378C244.248 76.8146 245.259 67.7917 245.337 67.7917C245.414 67.7917 244.637 76.8146 243.47 87.9378C242.303 99.1387 241.292 108.162 241.214 108.084Z" fill="#263238"/>
<path d="M256.538 69.8921C256.538 69.9699 254.671 70.1255 252.338 70.1255C250.004 70.1255 248.137 70.0477 248.137 69.8921C248.137 69.8143 250.004 69.6588 252.338 69.6588C254.671 69.6588 256.538 69.7365 256.538 69.8921Z" fill="#263238"/>
<path d="M292.473 69.892C292.473 69.9698 284.928 70.1254 275.672 70.1254C266.338 70.1254 258.871 70.0476 258.871 69.892C258.871 69.8142 266.416 69.6587 275.672 69.6587C284.928 69.6587 292.473 69.7364 292.473 69.892Z" fill="#5E79B7"/>
<path d="M255.526 91.2045C255.526 91.2823 253.659 91.4378 251.326 91.4378C248.992 91.4378 247.125 91.3601 247.125 91.2045C247.125 91.0489 248.992 90.9711 251.326 90.9711C253.659 90.9711 255.526 91.0489 255.526 91.2045Z" fill="#263238"/>
<path d="M291.54 91.2045C291.54 91.2823 283.995 91.4378 274.739 91.4378C265.404 91.4378 257.937 91.3601 257.937 91.2045C257.937 91.0489 265.482 90.9711 274.739 90.9711C283.995 90.9711 291.54 91.0489 291.54 91.2045Z" fill="#5E79B7"/>
<path d="M280.028 101.005C280.028 101.083 272.483 101.239 263.226 101.239C253.892 101.239 246.425 101.161 246.425 101.005C246.425 100.85 253.97 100.772 263.226 100.772C272.483 100.772 280.028 100.85 280.028 101.005Z" fill="#5E79B7"/>
<path d="M260.272 75.8815C260.272 75.9593 257.627 76.1149 254.36 76.1149C251.093 76.1149 248.449 76.0371 248.449 75.8815C248.449 75.8038 251.093 75.6482 254.36 75.6482C257.627 75.6482 260.272 75.726 260.272 75.8815Z" fill="#5E79B7"/>
<path d="M259.961 84.6709C259.961 84.7487 257.316 84.9043 254.049 84.9043C250.782 84.9043 248.137 84.8265 248.137 84.6709C248.137 84.5153 250.782 84.4376 254.049 84.4376C257.316 84.5153 259.961 84.5931 259.961 84.6709Z" fill="#5E79B7"/>
<path d="M269.994 97.2719C269.994 97.3497 267.349 97.5052 264.082 97.5052C260.815 97.5052 258.171 97.4274 258.171 97.2719C258.171 97.1941 260.815 97.0385 264.082 97.0385C267.349 97.1163 269.994 97.1941 269.994 97.2719Z" fill="#5E79B7"/>
<path d="M303.52 75.8816C303.52 75.9594 296.752 76.115 288.352 76.115C279.951 76.115 273.184 76.0372 273.184 75.8816C273.184 75.8038 279.951 75.6483 288.352 75.6483C296.752 75.6483 303.52 75.726 303.52 75.8816Z" fill="#263238"/>
<path d="M294.185 85.2152C294.185 85.293 287.417 85.4486 279.017 85.4486C270.616 85.4486 263.849 85.3708 263.849 85.2152C263.849 85.0597 270.616 84.9819 279.017 84.9819C287.34 84.9819 294.185 85.0597 294.185 85.2152Z" fill="#263238"/>
<path d="M304.608 97.2721C304.608 97.3499 297.841 97.5055 289.441 97.5055C281.04 97.5055 274.273 97.4277 274.273 97.2721C274.273 97.1943 281.04 97.0388 289.441 97.0388C297.841 97.1165 304.608 97.1943 304.608 97.2721Z" fill="#263238"/>
<path d="M276.839 108.084C276.839 108.161 270.072 108.317 261.671 108.317C253.27 108.317 246.503 108.239 246.503 108.084C246.503 107.928 253.27 107.85 261.671 107.85C270.072 107.928 276.839 108.006 276.839 108.084Z" fill="#263238"/>
<path d="M310.442 108.084C310.442 108.161 303.675 108.317 295.274 108.317C286.873 108.317 280.106 108.239 280.106 108.084C280.106 107.928 286.873 107.85 295.274 107.85C303.675 107.928 310.442 108.006 310.442 108.084Z" fill="#263238"/>
<path d="M276.839 111.662C276.839 111.74 270.072 111.895 261.671 111.895C253.27 111.895 246.503 111.818 246.503 111.662C246.503 111.506 253.27 111.429 261.671 111.429C270.072 111.429 276.839 111.506 276.839 111.662Z" fill="#263238"/>
<path d="M278.317 78.3699C278.317 78.4477 271.55 78.6032 263.15 78.6032C254.749 78.6032 247.982 78.5255 247.982 78.3699C247.982 78.2921 254.749 78.1365 263.15 78.1365C271.55 78.2143 278.317 78.2921 278.317 78.3699Z" fill="#263238"/>
<path d="M270.228 75.8815C270.228 75.9593 268.439 76.1149 266.339 76.1149C264.161 76.1149 262.449 76.0371 262.449 75.8815C262.449 75.726 264.238 75.6482 266.339 75.6482C268.517 75.726 270.228 75.8038 270.228 75.8815Z" fill="#455A64"/>
<path d="M254.515 94.0824C254.515 94.1602 252.725 94.3157 250.625 94.3157C248.447 94.3157 246.736 94.2379 246.736 94.0824C246.736 94.0046 248.525 93.849 250.625 93.849C252.803 93.849 254.515 93.9268 254.515 94.0824Z" fill="#455A64"/>
<path d="M254.36 97.2721C254.36 97.3498 252.571 97.5054 250.471 97.5054C248.293 97.5054 246.582 97.4276 246.582 97.2721C246.582 97.1943 248.371 97.0387 250.471 97.0387C252.571 97.1165 254.36 97.1943 254.36 97.2721Z" fill="#455A64"/>
<path d="M322.187 64.525C322.187 64.6028 303.286 64.7584 279.873 64.7584C256.538 64.7584 237.558 64.6806 237.558 64.525C237.558 64.4472 256.46 64.2917 279.873 64.2917C303.208 64.3694 322.187 64.4472 322.187 64.525Z" fill="#263238"/>
<path d="M244.248 61.6466C244.248 62.1911 243.781 62.6578 243.236 62.6578C242.692 62.6578 242.225 62.1911 242.225 61.6466C242.225 61.1021 242.692 60.6354 243.236 60.6354C243.859 60.7132 244.248 61.1021 244.248 61.6466Z" fill="white"/>
<path d="M248.604 61.6466C248.604 62.1911 248.137 62.6578 247.592 62.6578C247.048 62.6578 246.581 62.1911 246.581 61.6466C246.581 61.1021 247.048 60.6354 247.592 60.6354C248.137 60.6354 248.604 61.1021 248.604 61.6466Z" fill="white"/>
<path d="M252.882 61.6466C252.882 62.1911 252.415 62.6578 251.871 62.6578C251.326 62.6578 250.86 62.1911 250.86 61.6466C250.86 61.1021 251.326 60.6354 251.871 60.6354C252.415 60.6354 252.882 61.1021 252.882 61.6466Z" fill="white"/>
<path d="M125.627 278.587H118.86V287.765H125.627V278.587Z" fill="#263238"/>
<path d="M161.868 171.183H221.762V168.305H161.868V171.183Z" fill="#263238"/>
<path d="M231.023 171.166L242.224 129.007H195.476L185.286 171.166H231.023Z" fill="#263238"/>
<path d="M188.088 167.977H229.858L239.581 131.03H197.655L188.088 167.977Z" fill="#F5F5F5"/>
<path d="M198.666 138.186L196.099 148.609H223.79L226.746 138.186H198.666Z" fill="#E0E0E0"/>
<path d="M220.913 136.786C220.913 136.864 216.09 137.019 210.023 137.019C204.033 137.019 199.133 136.942 199.133 136.786C199.133 136.708 203.956 136.553 210.023 136.553C216.012 136.553 220.913 136.63 220.913 136.786Z" fill="#455A64"/>
<path d="M208.234 140.131C208.234 140.209 206.289 140.364 203.878 140.364C201.467 140.364 199.522 140.286 199.522 140.131C199.522 139.975 201.467 139.897 203.878 139.897C206.289 139.975 208.234 140.053 208.234 140.131Z" fill="#263238"/>
<path d="M215.234 139.975C215.234 140.053 213.989 140.208 212.356 140.208C210.8 140.208 209.478 140.131 209.478 139.975C209.478 139.82 210.722 139.742 212.356 139.742C213.989 139.82 215.234 139.897 215.234 139.975Z" fill="#263238"/>
<path d="M223.168 142.075C223.168 142.153 217.801 142.308 211.189 142.308C204.578 142.308 199.211 142.231 199.211 142.075C199.211 141.92 204.578 141.842 211.189 141.842C217.801 141.842 223.168 141.92 223.168 142.075Z" fill="#455A64"/>
<path d="M206.522 143.786C206.522 143.864 204.811 144.02 202.633 144.02C200.455 144.02 198.744 143.942 198.744 143.786C198.744 143.709 200.455 143.553 202.633 143.553C204.811 143.553 206.522 143.709 206.522 143.786Z" fill="#5E79B7"/>
<path d="M221.068 146.276C221.068 146.354 216.09 146.509 209.945 146.509C203.8 146.509 198.822 146.431 198.822 146.276C198.822 146.12 203.8 146.042 209.945 146.042C216.09 146.042 221.068 146.12 221.068 146.276Z" fill="#455A64"/>
<path d="M204.733 151.643C204.733 151.721 202.788 151.876 200.455 151.876C198.121 151.876 196.176 151.798 196.176 151.643C196.176 151.487 198.121 151.409 200.455 151.409C202.788 151.409 204.733 151.487 204.733 151.643Z" fill="#455A64"/>
<path d="M212.045 151.643C212.045 151.721 210.722 151.798 209.089 151.798C207.455 151.798 206.133 151.721 206.133 151.565C206.133 151.487 207.455 151.409 209.089 151.409C210.722 151.487 212.045 151.565 212.045 151.643Z" fill="#263238"/>
<path d="M216.168 151.487C216.168 151.565 215.624 151.72 214.923 151.72C214.223 151.72 213.679 151.643 213.679 151.487C213.679 151.332 214.223 151.254 214.923 151.254C215.624 151.254 216.168 151.332 216.168 151.487Z" fill="#263238"/>
<path d="M198.977 153.743C198.977 153.821 198.354 153.977 197.577 153.977C196.799 153.977 196.176 153.899 196.176 153.743C196.176 153.666 196.799 153.51 197.577 153.51C198.432 153.588 198.977 153.666 198.977 153.743Z" fill="#5E79B7"/>
<path d="M207.144 153.743C207.144 153.821 205.667 153.977 203.877 153.977C202.088 153.977 200.611 153.899 200.611 153.743C200.611 153.666 202.088 153.51 203.877 153.51C205.744 153.588 207.144 153.666 207.144 153.743Z" fill="#263238"/>
<path d="M226.669 153.51C226.669 153.587 222.78 153.743 217.958 153.743C213.135 153.743 209.246 153.665 209.246 153.51C209.246 153.354 213.135 153.276 217.958 153.276C222.78 153.354 226.669 153.432 226.669 153.51Z" fill="#455A64"/>
<path d="M198.588 155.999C198.588 156.076 197.966 156.232 197.188 156.232C196.41 156.232 195.788 156.154 195.788 155.999C195.788 155.921 196.41 155.765 197.188 155.765C197.966 155.765 198.588 155.921 198.588 155.999Z" fill="#263238"/>
<path d="M202.867 155.921C202.867 155.999 202.089 156.154 201.156 156.154C200.222 156.154 199.445 156.076 199.445 155.921C199.445 155.843 200.222 155.688 201.156 155.688C202.167 155.688 202.867 155.843 202.867 155.921Z" fill="#263238"/>
<path d="M215.7 155.765C215.7 155.843 213.211 155.999 210.178 155.999C207.144 155.999 204.655 155.921 204.655 155.765C204.655 155.688 207.144 155.532 210.178 155.532C213.211 155.532 215.7 155.61 215.7 155.765Z" fill="#455A64"/>
<path d="M208.933 159.654C208.933 159.732 205.977 159.888 202.321 159.888C198.665 159.888 195.71 159.81 195.71 159.654C195.71 159.577 198.665 159.421 202.321 159.421C205.977 159.421 208.933 159.499 208.933 159.654Z" fill="#455A64"/>
<path d="M216.712 159.499C216.712 159.577 215.39 159.732 213.679 159.732C212.045 159.732 210.645 159.654 210.645 159.499C210.645 159.343 211.968 159.266 213.679 159.266C215.312 159.266 216.712 159.343 216.712 159.499Z" fill="#5E79B7"/>
<path d="M228.223 159.499C228.223 159.577 225.967 159.733 223.245 159.733C220.523 159.733 218.267 159.655 218.267 159.499C218.267 159.344 220.523 159.266 223.245 159.266C225.967 159.266 228.223 159.344 228.223 159.499Z" fill="#263238"/>
<path d="M225.502 136.631C225.502 136.708 225.035 136.864 224.49 136.864C223.946 136.864 223.479 136.786 223.479 136.631C223.479 136.475 223.946 136.397 224.49 136.397C225.035 136.397 225.502 136.475 225.502 136.631Z" fill="#263238"/>
<path d="M204.422 135.23C204.422 135.308 203.411 135.464 202.167 135.464C200.922 135.464 199.911 135.386 199.911 135.23C199.911 135.153 200.922 134.997 202.167 134.997C203.411 134.997 204.422 135.075 204.422 135.23Z" fill="#5E79B7"/>
<path d="M238.88 133.675C224.723 133.675 211.033 133.675 196.877 133.675L197.577 131.03H239.58L238.88 133.675Z" fill="#EBEBEB"/>
<path d="M199.366 132.819C199.624 132.819 199.833 132.61 199.833 132.353C199.833 132.095 199.624 131.886 199.366 131.886C199.109 131.886 198.9 132.095 198.9 132.353C198.9 132.61 199.109 132.819 199.366 132.819Z" fill="#FAFAFA"/>
<path d="M201 132.819C201.258 132.819 201.467 132.61 201.467 132.353C201.467 132.095 201.258 131.886 201 131.886C200.742 131.886 200.533 132.095 200.533 132.353C200.533 132.61 200.742 132.819 201 132.819Z" fill="#FAFAFA"/>
<path d="M202.555 132.819C202.813 132.819 203.022 132.61 203.022 132.353C203.022 132.095 202.813 131.886 202.555 131.886C202.298 131.886 202.089 132.095 202.089 132.353C202.089 132.61 202.298 132.819 202.555 132.819Z" fill="#FAFAFA"/>
<path d="M124.227 280.453H57.6437V175.056H124.227V280.453Z" fill="#263238"/>
<path d="M293.718 171.011H54.3766V176.534H293.718V171.011Z" fill="#263238"/>
<path d="M65.0327 176.534H57.6432V288.31H65.0327V176.534Z" fill="#263238"/>
<path d="M290.062 176.534H282.673V288.31H290.062V176.534Z" fill="#263238"/>
<path d="M243.236 176.534H235.847V288.31H243.236V176.534Z" fill="#263238"/>
<path d="M88.0572 171.011C88.0572 171.089 80.901 171.245 72.1114 171.245C63.3218 171.245 56.1657 171.167 56.1657 171.011C56.1657 170.856 63.3218 170.778 72.1114 170.778C80.901 170.778 88.0572 170.933 88.0572 171.011Z" fill="#455A64"/>
<path d="M158.063 282.865L158.218 274.853L143.284 274.386L142.895 286.054L143.828 286.131C147.951 286.52 164.83 287.609 167.63 286.909C170.664 286.131 158.063 282.865 158.063 282.865Z" fill="#5E79B7"/>
<g opacity="0.4">
<g opacity="0.4">
<g opacity="0.4">
<path opacity="0.4" d="M164.208 284.654C164.208 284.654 168.642 286.054 168.02 286.754C167.475 287.454 150.363 286.909 142.818 286.054V285.742L162.73 286.52C162.808 286.598 163.353 284.731 164.208 284.654Z" fill="white"/>
</g>
</g>
</g>
<path d="M142.662 285.742C142.662 285.742 142.74 285.742 142.895 285.742C143.129 285.742 143.362 285.82 143.595 285.82C144.295 285.898 145.229 285.976 146.318 286.054C148.651 286.209 151.763 286.365 155.263 286.52C158.763 286.598 161.952 286.676 164.286 286.676C165.375 286.676 166.308 286.676 167.008 286.676C167.319 286.676 167.553 286.676 167.786 286.676C167.942 286.676 168.019 286.676 168.019 286.676C168.019 286.676 167.942 286.676 167.786 286.676C167.553 286.676 167.319 286.676 167.008 286.676C166.23 286.676 165.375 286.676 164.286 286.676C161.952 286.676 158.841 286.598 155.263 286.52C151.763 286.442 148.573 286.287 146.318 286.131C145.229 286.054 144.373 286.054 143.595 285.976C143.284 285.976 143.051 285.976 142.817 285.976C142.74 285.742 142.662 285.742 142.662 285.742Z" fill="#263238"/>
<path d="M162.808 286.832C162.886 286.832 162.963 286.209 163.352 285.587C163.741 284.965 164.363 284.654 164.286 284.576C164.286 284.498 163.663 284.809 163.197 285.509C162.73 286.132 162.73 286.832 162.808 286.832Z" fill="#263238"/>
<path d="M158.451 284.42C158.529 284.42 158.684 284.187 158.918 283.876C159.151 283.564 159.307 283.253 159.229 283.175C159.151 283.175 158.995 283.409 158.762 283.72C158.606 284.109 158.451 284.42 158.451 284.42Z" fill="#263238"/>
<path d="M157.286 283.72C157.286 283.72 157.598 283.642 157.831 283.409C158.064 283.175 158.298 282.942 158.22 282.942C158.22 282.942 157.909 283.02 157.675 283.253C157.442 283.486 157.209 283.72 157.286 283.72Z" fill="#263238"/>
<path d="M156.507 282.32C156.507 282.398 156.818 282.398 157.285 282.476C157.752 282.476 158.063 282.476 158.063 282.398C158.063 282.32 157.752 282.32 157.285 282.243C156.896 282.243 156.507 282.243 156.507 282.32Z" fill="#263238"/>
<path d="M156.273 281.31C156.273 281.387 156.662 281.543 157.129 281.621C157.673 281.699 158.062 281.543 158.062 281.543C158.062 281.465 157.673 281.543 157.207 281.465C156.74 281.387 156.351 281.232 156.273 281.31Z" fill="#263238"/>
<path d="M158.996 283.099C158.996 283.099 159.385 283.176 159.929 283.099C160.24 283.099 160.552 283.021 160.94 282.943C161.096 282.865 161.329 282.865 161.563 282.71C161.641 282.632 161.796 282.554 161.796 282.399C161.874 282.243 161.796 282.087 161.641 282.01C160.707 281.543 159.774 282.01 159.463 282.476C159.229 282.71 159.151 282.943 159.151 283.099C159.074 283.254 159.074 283.332 159.151 283.332C159.151 283.332 159.229 282.943 159.618 282.554C159.774 282.321 160.085 282.165 160.474 282.01C160.785 281.932 161.329 281.932 161.641 282.087C161.796 282.243 161.718 282.399 161.563 282.476C161.407 282.554 161.174 282.632 161.018 282.71C160.629 282.787 160.318 282.865 160.007 282.943C159.385 283.099 158.996 283.099 158.996 283.099Z" fill="#263238"/>
<path d="M159.229 283.176C159.229 283.176 159.384 282.943 159.384 282.476C159.384 282.243 159.306 282.01 159.151 281.776C158.995 281.543 158.762 281.232 158.373 281.232C158.14 281.232 158.062 281.465 158.062 281.698C158.062 281.854 158.14 282.01 158.217 282.165C158.373 282.398 158.529 282.632 158.684 282.787C158.995 283.099 159.229 283.176 159.229 283.176C159.229 283.176 159.073 283.021 158.762 282.71C158.606 282.554 158.529 282.321 158.373 282.087C158.217 281.854 158.14 281.543 158.373 281.465C158.606 281.465 158.84 281.698 158.995 281.854C159.151 282.087 159.229 282.321 159.229 282.476C159.306 282.943 159.229 283.176 159.229 283.176Z" fill="#263238"/>
<path d="M143.05 281.698C143.05 281.698 143.517 281.698 144.139 281.776C144.839 281.853 145.695 282.164 146.551 282.865C147.329 283.565 147.795 284.42 148.029 285.042C148.262 285.665 148.262 286.131 148.262 286.131C148.262 286.131 148.262 286.054 148.262 285.82C148.262 285.665 148.184 285.354 148.106 285.042C147.951 284.342 147.484 283.487 146.628 282.787C145.773 282.087 144.839 281.776 144.139 281.698C143.828 281.698 143.517 281.698 143.284 281.698C143.206 281.62 143.05 281.698 143.05 281.698Z" fill="#263238"/>
<path d="M144.839 275.475C144.761 275.475 144.684 276.876 144.606 278.509C144.528 280.22 144.528 281.62 144.528 281.62C144.606 281.62 144.684 280.22 144.761 278.587C144.839 276.876 144.839 275.475 144.839 275.475Z" fill="#263238"/>
<path d="M150.207 284.732C150.207 284.809 151.141 284.965 152.385 285.043C153.63 285.121 154.563 284.965 154.563 284.965C154.563 284.887 153.552 284.965 152.385 284.887C151.218 284.809 150.207 284.732 150.207 284.732Z" fill="#263238"/>
<path d="M147.25 284.654C147.25 284.654 147.328 284.887 147.406 285.12C147.484 285.354 147.561 285.587 147.561 285.509C147.639 285.509 147.639 285.276 147.561 285.043C147.484 284.809 147.328 284.654 147.25 284.654Z" fill="#263238"/>
<path d="M146.239 283.253C146.239 283.253 146.317 283.409 146.472 283.642C146.628 283.798 146.783 283.875 146.783 283.875C146.783 283.875 146.706 283.72 146.55 283.487C146.395 283.331 146.239 283.253 146.239 283.253Z" fill="#263238"/>
<path d="M144.685 282.553C144.685 282.631 144.918 282.631 145.074 282.709C145.307 282.787 145.463 282.942 145.463 282.865C145.54 282.865 145.385 282.631 145.152 282.553C144.84 282.476 144.607 282.553 144.685 282.553Z" fill="#263238"/>
<path d="M143.517 282.243C143.517 282.32 143.595 282.398 143.672 282.398C143.828 282.476 143.906 282.476 143.906 282.398C143.906 282.32 143.828 282.243 143.75 282.243C143.672 282.243 143.517 282.243 143.517 282.243Z" fill="#263238"/>
<g opacity="0.3">
<path opacity="0.3" d="M143.128 281.309L158.063 281.465L158.141 279.676L143.05 280.298L143.128 281.309Z" fill="black"/>
</g>
<path d="M181.631 284.11V276.098L166.619 276.02L166.541 287.688L167.475 287.765C171.597 287.999 188.476 288.699 191.277 287.921C194.388 287.065 181.631 284.11 181.631 284.11Z" fill="#5E79B7"/>
<g opacity="0.4">
<g opacity="0.4">
<g opacity="0.4">
<path opacity="0.4" d="M187.854 285.743C187.854 285.743 192.288 287.065 191.743 287.765C191.199 288.465 174.086 288.388 166.541 287.765V287.454L186.454 287.687C186.532 287.687 186.998 285.821 187.854 285.743Z" fill="white"/>
</g>
</g>
</g>
<path d="M166.385 287.454C166.385 287.454 166.463 287.454 166.619 287.454C166.852 287.454 167.086 287.454 167.397 287.532C168.174 287.532 169.03 287.61 170.119 287.688C172.453 287.765 175.564 287.843 179.142 287.921C182.642 287.921 185.831 287.921 188.165 287.843C189.254 287.765 190.11 287.765 190.887 287.765C191.199 287.765 191.432 287.765 191.665 287.688C191.821 287.688 191.899 287.688 191.899 287.688C191.899 287.688 191.821 287.688 191.665 287.688C191.432 287.688 191.199 287.688 190.887 287.688C190.11 287.688 189.254 287.688 188.165 287.765C185.831 287.765 182.72 287.843 179.142 287.843C175.642 287.843 172.453 287.765 170.119 287.688C169.03 287.688 168.174 287.61 167.397 287.61C167.086 287.61 166.852 287.61 166.619 287.61C166.463 287.376 166.385 287.376 166.385 287.454Z" fill="#263238"/>
<path d="M186.531 287.921C186.609 287.921 186.609 287.299 187.076 286.599C187.465 285.899 188.009 285.588 188.009 285.588C188.009 285.51 187.387 285.821 186.92 286.521C186.454 287.221 186.454 287.921 186.531 287.921Z" fill="#263238"/>
<path d="M182.098 285.665C182.176 285.665 182.331 285.432 182.564 285.121C182.798 284.81 182.953 284.499 182.876 284.421C182.798 284.421 182.642 284.654 182.409 284.965C182.253 285.354 182.098 285.665 182.098 285.665Z" fill="#263238"/>
<path d="M180.93 285.043C180.93 285.043 181.163 284.887 181.474 284.654C181.708 284.421 181.941 284.187 181.863 284.187C181.863 284.187 181.63 284.343 181.319 284.499C181.086 284.732 180.852 284.965 180.93 285.043Z" fill="#263238"/>
<path d="M180.153 283.565C180.153 283.642 180.464 283.642 180.931 283.642C181.398 283.642 181.709 283.642 181.709 283.565C181.709 283.487 181.398 283.487 180.931 283.487C180.464 283.487 180.153 283.565 180.153 283.565Z" fill="#263238"/>
<path d="M179.92 282.632C179.92 282.71 180.309 282.865 180.775 282.865C181.32 282.943 181.709 282.787 181.709 282.787C181.709 282.71 181.32 282.787 180.853 282.71C180.309 282.632 179.92 282.554 179.92 282.632Z" fill="#263238"/>
<path d="M182.641 284.344C182.641 284.344 183.03 284.421 183.575 284.344C183.886 284.344 184.197 284.266 184.586 284.11C184.741 284.032 184.975 284.032 185.208 283.877C185.286 283.799 185.442 283.721 185.442 283.566C185.519 283.41 185.442 283.255 185.286 283.177C184.353 282.71 183.419 283.177 183.108 283.721C182.952 283.955 182.797 284.188 182.797 284.344C182.719 284.499 182.797 284.577 182.797 284.577C182.797 284.577 182.875 284.188 183.264 283.721C183.419 283.488 183.73 283.332 184.119 283.177C184.43 283.099 184.975 283.021 185.286 283.255C185.442 283.332 185.364 283.566 185.208 283.644C185.053 283.721 184.819 283.799 184.664 283.877C184.275 284.032 183.964 284.11 183.653 284.11C183.03 284.344 182.641 284.344 182.641 284.344Z" fill="#263238"/>
<path d="M182.875 284.421C182.875 284.421 183.031 284.187 182.953 283.721C182.953 283.487 182.875 283.254 182.72 283.021C182.564 282.787 182.331 282.476 181.942 282.554C181.708 282.554 181.631 282.865 181.631 283.021C181.631 283.176 181.708 283.332 181.786 283.487C181.942 283.721 182.097 283.954 182.253 284.11C182.564 284.421 182.797 284.498 182.797 284.498C182.797 284.498 182.642 284.343 182.331 284.032C182.175 283.876 182.02 283.721 181.942 283.487C181.786 283.254 181.708 282.943 181.942 282.865C182.175 282.865 182.408 283.098 182.564 283.254C182.72 283.487 182.797 283.721 182.797 283.876C182.953 284.11 182.875 284.421 182.875 284.421Z" fill="#263238"/>
<path d="M166.697 283.332C166.697 283.332 167.163 283.254 167.785 283.41C168.486 283.487 169.419 283.799 170.197 284.421C170.975 285.043 171.441 285.899 171.675 286.521C171.908 287.143 171.908 287.61 171.986 287.61C171.986 287.61 171.986 287.532 171.986 287.299C171.986 287.143 171.908 286.832 171.83 286.521C171.675 285.821 171.13 284.965 170.352 284.265C169.497 283.565 168.563 283.332 167.863 283.254C167.552 283.254 167.241 283.254 167.008 283.254C166.774 283.254 166.697 283.332 166.697 283.332Z" fill="#263238"/>
<path d="M168.252 277.109C168.175 277.109 168.175 278.509 168.097 280.221C168.097 281.932 168.097 283.332 168.097 283.332C168.175 283.332 168.175 281.932 168.252 280.221C168.33 278.509 168.33 277.109 168.252 277.109Z" fill="#263238"/>
<path d="M173.853 286.21C173.853 286.287 174.787 286.443 176.031 286.443C177.276 286.443 178.209 286.287 178.209 286.287C178.209 286.21 177.198 286.287 176.031 286.287C174.864 286.21 173.853 286.132 173.853 286.21Z" fill="#263238"/>
<path d="M170.974 286.21C170.974 286.21 171.052 286.443 171.129 286.676C171.207 286.91 171.285 287.065 171.363 287.065C171.441 287.065 171.441 286.832 171.363 286.599C171.207 286.287 170.974 286.132 170.974 286.21Z" fill="#263238"/>
<path d="M169.807 284.81C169.807 284.81 169.885 284.965 170.04 285.121C170.196 285.276 170.351 285.354 170.351 285.354C170.351 285.354 170.274 285.199 170.118 285.043C170.04 284.888 169.885 284.81 169.807 284.81Z" fill="#263238"/>
<path d="M168.252 284.187C168.252 284.265 168.486 284.265 168.719 284.343C168.952 284.421 169.108 284.576 169.108 284.498C169.186 284.498 169.03 284.265 168.719 284.187C168.486 284.032 168.252 284.109 168.252 284.187Z" fill="#263238"/>
<path d="M167.163 283.877C167.163 283.954 167.241 284.032 167.319 284.032C167.474 284.11 167.552 284.11 167.552 284.032C167.552 283.954 167.474 283.877 167.397 283.877C167.241 283.799 167.163 283.799 167.163 283.877Z" fill="#263238"/>
<g opacity="0.3">
<path opacity="0.3" d="M166.697 282.943L181.631 282.71V280.921L166.541 282.01L166.697 282.943Z" fill="black"/>
</g>
<path d="M148.573 147.209L154.563 165.255C156.196 170.156 160.474 170.933 165.608 170.933H198.977V163.466L168.486 159.11L161.252 140.52L148.573 147.209Z" fill="#FFBE9D"/>
<path d="M202.633 161.988L205.278 160.744C205.278 160.744 208.156 155.221 208.778 155.455C209.401 155.688 209.634 157.321 208.467 159.811L211.968 158.799C211.968 158.799 219.59 162.3 219.279 162.766C218.968 163.233 218.346 164.4 216.635 163.544C215.001 162.689 212.823 161.677 212.823 161.677L208.701 162.844L213.99 163.544L218.968 168.056C218.968 168.056 217.335 169.3 215.935 167.978L203.022 170.778L198.978 171.011V163.544L202.633 161.988Z" fill="#FFBE9D"/>
<path d="M215.934 167.978C215.856 167.978 215.623 167.667 215.156 167.122C214.923 166.889 214.611 166.578 214.223 166.422C213.834 166.189 213.367 166.111 212.822 166.033C210.645 165.8 208.933 165.489 208.933 165.333C208.933 165.256 210.722 165.333 212.9 165.567C213.445 165.644 213.989 165.722 214.456 166.033C214.845 166.267 215.234 166.578 215.389 166.889C215.856 167.589 216.012 167.978 215.934 167.978Z" fill="#EB996E"/>
<path d="M213.912 168.523C213.835 168.523 213.835 168.29 213.446 168.212C213.057 168.134 212.512 168.056 211.89 167.978C210.646 167.823 209.634 167.901 209.634 167.745C209.634 167.667 210.646 167.434 211.968 167.589C212.59 167.667 213.135 167.745 213.601 167.901C213.835 167.978 213.99 168.212 213.99 168.29C213.99 168.445 213.99 168.523 213.912 168.523Z" fill="#EB996E"/>
<path d="M120.414 73.0038L118.625 109.718L134.338 111.196L135.193 102.328C135.193 102.328 140.716 103.728 142.427 98.5947C143.516 95.3278 144.449 69.6591 144.449 69.6591L120.414 73.0038Z" fill="#FFBE9D"/>
<path d="M145.772 73.8594C146.239 77.2819 141.416 79.3043 141.416 79.3043L140.56 87.3938C139.86 87.3161 138.305 87.3938 138.305 87.3938C138.694 83.5824 133.793 84.3603 133.326 86.9271C132.86 89.4162 135.66 91.1275 135.66 91.1275C133.715 94.1611 132.86 95.7167 130.137 98.5947C127.104 101.628 125.47 101.862 122.359 101.784L118.936 101.551C118.936 101.551 117.692 98.5947 116.836 91.672C116.37 88.3273 113.803 83.9713 114.581 78.5265C116.681 63.1252 131.46 64.7587 131.46 64.7587C139.083 65.0698 144.761 65.8477 145.772 73.8594Z" fill="#263238"/>
<path d="M134.494 65.3028C137.839 65.3806 141.262 65.6139 144.217 67.2474C147.173 68.8809 149.429 72.1478 148.807 75.4147C148.262 75.4925 147.718 75.6481 147.173 75.7259C146.94 75.3369 146.707 74.8702 146.473 74.4813C146.473 75.1036 146.473 75.8036 146.473 76.4259C145.462 76.7371 144.529 76.9704 143.517 77.2815C143.051 74.7925 142.195 72.3811 140.95 70.2032" fill="#263238"/>
<path d="M121.038 82.1819C121.038 82.1819 120.882 82.0263 120.804 81.6374C120.649 81.2485 120.493 80.704 120.415 80.004C120.182 78.6038 120.104 76.5037 120.804 74.3257C121.504 72.1478 122.671 70.5143 123.682 69.4253C124.227 68.8808 124.616 68.4919 125.005 68.2586C125.316 68.0252 125.549 67.8696 125.549 67.9474C125.627 68.0252 124.849 68.5697 123.916 69.5809C122.982 70.6699 121.893 72.3033 121.193 74.4035C120.571 76.5037 120.571 78.4483 120.727 79.9262C120.804 81.2485 121.115 82.1041 121.038 82.1819Z" fill="#455A64"/>
<path d="M124.149 80.8595C124.071 80.8595 123.838 80.1595 123.527 78.9927C123.216 77.8259 123.06 76.1147 123.216 74.2479C123.371 72.3811 123.838 70.7476 124.305 69.5808C124.771 68.4141 125.238 67.7918 125.238 67.8696C125.394 67.9474 123.916 70.592 123.604 74.3257C123.293 77.9037 124.305 80.8595 124.149 80.8595Z" fill="#455A64"/>
<path d="M144.217 75.1813C144.139 75.1813 143.984 74.2479 143.362 72.8478C142.739 71.4477 141.495 69.6587 139.55 68.3363C137.606 67.014 135.505 66.5473 133.95 66.4695C132.394 66.3917 131.461 66.6251 131.461 66.5473C131.461 66.5473 131.694 66.4695 132.083 66.314C132.55 66.2362 133.172 66.1584 133.95 66.1584C135.505 66.1584 137.761 66.5473 139.784 67.9474C141.806 69.3475 143.05 71.2144 143.595 72.6922C143.906 73.3923 144.062 74.0146 144.139 74.4813C144.217 74.948 144.217 75.1813 144.217 75.1813Z" fill="#455A64"/>
<path d="M121.505 62.2693C121.505 62.1915 122.75 62.5027 123.761 63.5916C124.85 64.6806 125.161 65.8474 125.083 65.8474C125.005 65.9252 124.461 64.8362 123.45 63.9028C122.516 62.8916 121.505 62.4249 121.505 62.2693Z" fill="#263238"/>
<path d="M125.238 62.347C125.316 62.4248 125.083 63.2026 125.161 64.2138C125.161 65.225 125.472 66.0029 125.394 66.0807C125.316 66.1584 124.772 65.3806 124.772 64.2138C124.694 63.1249 125.083 62.2692 125.238 62.347Z" fill="#455A64"/>
<path d="M145.775 143.32L148.341 152.032L164.598 144.642C163.976 142.853 161.331 134.686 156.198 121.851C153.32 114.695 146.941 109.484 139.319 108.239C133.951 107.384 128.195 106.684 123.762 106.684C114.661 106.761 101.204 112.517 99.4153 121.463C98.0152 128.308 99.3375 140.364 99.3375 154.987L100.504 182.99L147.33 184.545L145.775 143.32Z" fill="#5E79B7"/>
<g opacity="0.3">
<g opacity="0.3">
<path opacity="0.3" d="M99.3366 148.531C105.015 149.698 110.849 148.531 116.682 148.142C120.183 147.909 124.072 147.52 126.872 149.698C129.05 151.409 129.984 154.287 130.606 157.01C133.017 167.355 133.484 174.356 134.028 184.934L105.87 186.646L99.3366 148.531Z" fill="black"/>
</g>
</g>
<path d="M146.94 112.907C146.94 112.985 146.473 112.985 145.696 113.296C144.918 113.607 143.907 114.307 142.973 115.474C142.118 116.64 141.495 118.352 141.34 120.374C141.184 122.319 141.495 124.497 141.806 126.752C142.506 131.264 143.595 135.309 144.451 138.187C144.84 139.587 145.151 140.753 145.384 141.609C145.618 142.387 145.696 142.854 145.696 142.854C145.696 142.854 145.54 142.387 145.229 141.609C144.996 140.831 144.607 139.664 144.14 138.187C143.284 135.309 142.118 131.264 141.417 126.675C141.106 124.419 140.795 122.163 140.951 120.141C141.106 118.118 141.729 116.329 142.74 115.085C143.673 113.84 144.84 113.218 145.618 112.907C146.007 112.751 146.318 112.673 146.551 112.673C146.862 112.907 146.94 112.907 146.94 112.907Z" fill="#263238"/>
<path d="M164.131 142.387C164.131 142.465 163.275 142.931 161.875 143.709C160.397 144.487 158.375 145.498 156.119 146.509C153.864 147.521 151.763 148.376 150.208 148.998C148.652 149.543 147.719 149.932 147.719 149.854C147.719 149.776 148.652 149.387 150.13 148.765C151.608 148.143 153.708 147.209 155.964 146.198C158.219 145.187 160.242 144.254 161.72 143.554C163.12 142.776 164.053 142.387 164.131 142.387Z" fill="#263238"/>
<path d="M114.893 183.457L170.819 185.401C179.92 185.713 187.076 193.258 186.921 202.358L184.587 282.243L162.963 281.543L164.597 206.792L114.893 205.47V183.457Z" fill="#263238"/>
<path d="M91.8688 183.457L147.796 185.401C156.896 185.713 164.052 193.258 163.897 202.358L161.563 282.243L139.706 280.531L141.573 206.792L91.8688 205.47V183.457Z" fill="#263238"/>
<path d="M133.716 212.47H128.193V278.353H133.716V212.47Z" fill="#455A64"/>
<path d="M82.0671 148.532V197.069C82.0671 203.447 87.2008 208.581 93.5791 208.581H125.86V148.532C125.86 145.731 123.526 143.398 120.726 143.398H87.2009C84.3228 143.398 82.0671 145.654 82.0671 148.532Z" fill="#455A64"/>
<path d="M169.341 212.47H90.7015C90.7015 207.725 94.5129 203.914 99.2577 203.914H160.863C165.53 203.914 169.341 207.725 169.341 212.47Z" fill="#455A64"/>
<path d="M125.86 202.825C125.86 202.825 125.86 202.98 125.86 203.214C125.86 203.447 125.86 203.836 125.704 204.303C125.549 205.236 124.926 206.558 123.604 207.57C122.904 208.114 122.126 208.503 121.115 208.659C120.104 208.814 119.093 208.736 118.004 208.736C115.826 208.736 113.414 208.736 110.925 208.736C105.947 208.736 101.358 208.736 98.091 208.659C96.5353 208.659 95.213 208.581 94.2018 208.581C93.8128 208.581 93.4239 208.581 93.1128 208.581C92.8794 208.581 92.7239 208.581 92.7239 208.503C92.7239 208.503 92.8794 208.503 93.1128 208.425C93.4239 208.425 93.7351 208.425 94.2018 208.347C95.213 208.347 96.5353 208.27 98.091 208.27C101.358 208.192 105.947 208.192 110.925 208.192C113.414 208.192 115.826 208.192 118.004 208.192C119.093 208.192 120.104 208.27 121.037 208.114C121.971 207.959 122.749 207.57 123.449 207.103C124.771 206.17 125.315 204.847 125.549 203.992C125.86 203.292 125.782 202.825 125.86 202.825Z" fill="#263238"/>
<path d="M135.738 212.625C135.738 212.703 133.56 212.859 130.916 212.859C128.271 212.859 126.093 212.781 126.093 212.625C126.093 212.548 128.271 212.392 130.916 212.392C133.56 212.47 135.738 212.548 135.738 212.625Z" fill="#263238"/>
<path d="M159.696 208.97C159.618 208.97 159.462 208.192 159.229 206.636C158.996 205.158 158.607 202.98 158.218 200.258C157.751 197.613 157.518 194.346 156.04 191.157C155.262 189.524 154.329 187.968 153.084 186.49C151.839 185.012 150.362 183.69 148.728 182.523C147.017 181.356 145.228 180.501 143.439 179.956C141.65 179.412 139.783 179.023 137.994 179.023C134.416 178.945 131.149 178.945 128.504 178.867C125.782 178.867 123.604 178.789 122.048 178.712C120.57 178.634 119.715 178.634 119.715 178.556C119.715 178.478 120.57 178.478 122.048 178.401C123.526 178.323 125.782 178.323 128.504 178.245C131.227 178.245 134.416 178.167 138.072 178.167C139.861 178.167 141.805 178.556 143.672 179.101C145.617 179.645 147.484 180.578 149.195 181.745C150.906 182.912 152.462 184.312 153.706 185.868C154.951 187.423 155.962 189.057 156.662 190.768C156.818 191.157 156.973 191.624 157.129 192.013C157.207 192.246 157.284 192.402 157.362 192.635C157.44 192.868 157.518 193.024 157.518 193.257C157.596 193.646 157.751 194.113 157.829 194.502C157.907 194.891 157.984 195.357 158.062 195.746C158.373 197.302 158.451 198.78 158.684 200.18C158.996 202.903 159.307 205.08 159.462 206.558C159.696 208.114 159.773 208.97 159.696 208.97Z" fill="#455A64"/>
<path d="M154.951 284.343H154.173C154.173 271.431 143.672 260.93 130.76 260.93C117.848 260.93 107.347 271.431 107.347 284.343H106.569C106.569 271.042 117.381 260.152 130.76 260.152C144.139 260.152 154.951 270.964 154.951 284.343Z" fill="#455A64"/>
<path d="M110.614 285.509C110.614 287.532 108.981 289.165 106.958 289.165C104.936 289.165 103.302 287.532 103.302 285.509C103.302 283.487 104.936 281.853 106.958 281.853C108.981 281.931 110.614 283.565 110.614 285.509Z" fill="#263238"/>
<path d="M158.374 285.043C158.374 287.065 156.74 288.699 154.718 288.699C152.696 288.699 151.062 287.065 151.062 285.043C151.062 283.02 152.696 281.387 154.718 281.387C156.74 281.387 158.374 283.02 158.374 285.043Z" fill="#263238"/>
<path d="M154.718 278.353C154.718 278.431 144.217 278.587 131.227 278.587C118.237 278.587 107.736 278.509 107.736 278.353C107.736 278.198 118.237 278.12 131.227 278.12C144.217 278.198 154.718 278.276 154.718 278.353Z" fill="#455A64"/>
<path d="M74.4451 126.986C75.6119 127.686 76.3897 128.93 76.7009 130.253C77.012 131.575 76.8564 132.975 76.5453 134.297C75.923 136.864 74.134 139.276 72.345 141.142C70.4004 138.964 70.2448 135.62 70.3226 133.908C70.4781 131.186 72.2672 126.363 74.4451 126.986Z" fill="#5E79B7"/>
<path d="M74.4451 145.731C74.2896 144.254 75.0674 142.698 76.312 141.842C77.5565 140.987 79.19 140.753 80.6679 140.987C81.3679 141.142 82.068 141.376 82.3791 141.998C82.6902 142.542 82.5347 143.32 82.2235 143.865C81.8346 144.409 81.2901 144.798 80.6679 145.031C78.6455 146.043 76.4675 146.587 74.4451 145.731Z" fill="#5E79B7"/>
<path d="M71.1774 151.41C71.1774 151.41 71.333 150.788 71.6441 149.776C71.7997 149.232 72.1108 148.687 72.4998 148.065C72.8887 147.443 73.2776 146.821 73.8221 146.198C74.9111 144.954 76.2334 144.098 77.2446 143.709C77.7891 143.554 78.178 143.398 78.4891 143.398C78.8003 143.398 78.9558 143.398 78.9558 143.398C78.9558 143.476 78.3336 143.554 77.3224 143.943C76.389 144.331 75.1444 145.187 74.0554 146.432C73.5109 147.054 73.122 147.676 72.7331 148.298C72.3442 148.843 72.033 149.387 71.7997 149.932C71.4108 150.788 71.1774 151.41 71.1774 151.41Z" fill="#263238"/>
<path d="M73.4335 130.797C73.4335 130.797 73.4335 131.108 73.4335 131.652C73.4335 132.197 73.3557 133.053 73.2779 134.064C73.1223 136.086 72.889 138.886 72.5778 141.92C72.2667 144.954 71.8778 147.754 71.5667 149.776C71.4111 150.787 71.2555 151.565 71.1777 152.11C71.0999 152.654 71.0222 152.965 71.0222 152.965C71.0222 152.965 71.0222 152.654 71.0999 152.11C71.1777 151.487 71.2555 150.71 71.4111 149.776C71.6444 147.754 72.0334 145.031 72.3445 141.92C72.6556 138.886 72.9668 136.164 73.1223 134.064C73.2001 133.13 73.2779 132.275 73.3557 131.652C73.3557 131.108 73.4335 130.797 73.4335 130.797Z" fill="#263238"/>
<path d="M71.0228 146.354C70.4783 143.243 68.3003 140.442 65.3445 139.12C64.5667 138.809 63.6333 138.575 63.011 139.12C62.3887 139.664 62.5443 140.676 62.8554 141.376C64.1778 144.487 67.5225 146.665 70.8672 146.587" fill="#5E79B7"/>
<path d="M65.967 141.376C65.967 141.376 66.1226 141.454 66.3559 141.609C66.5893 141.765 66.9782 141.998 67.4449 142.309C68.3006 142.931 69.4673 143.865 70.4007 145.187C70.8674 145.887 71.1786 146.587 71.3341 147.287C71.4897 147.987 71.5675 148.61 71.5675 149.154C71.5675 149.699 71.4897 150.088 71.4119 150.399C71.3341 150.71 71.3341 150.865 71.2563 150.865C71.1786 150.865 71.3341 150.243 71.3341 149.154C71.3341 148.61 71.2563 147.987 71.1008 147.365C70.9452 146.743 70.6341 146.043 70.1674 145.343C69.3117 144.02 68.145 143.087 67.2894 142.465C66.4337 141.765 65.8892 141.454 65.967 141.376Z" fill="#263238"/>
<path d="M70.7896 171.011C65.4225 171.011 61.0666 166.655 61.0666 161.288V151.565H80.5126V161.288C80.5126 166.655 76.1567 171.011 70.7896 171.011Z" fill="#263238"/>
<path d="M80.5128 156.31C80.5128 156.31 80.435 156.388 80.2794 156.621C80.0461 156.854 79.8127 157.088 79.5016 157.321C78.7238 157.943 77.7904 158.799 76.5458 159.81L76.468 159.888L76.3902 159.81C74.7568 158.799 72.8122 157.632 70.7898 156.388H70.9454C69.0008 157.632 67.2117 158.799 65.7338 159.81L65.656 159.888L65.5783 159.81C64.2559 158.799 63.167 157.943 62.3891 157.321C62.0002 157.01 61.7668 156.777 61.5335 156.621C61.3001 156.466 61.2224 156.388 61.2224 156.31C61.2224 156.31 61.3779 156.388 61.5335 156.543C61.7668 156.699 62.078 156.932 62.4669 157.243C63.3225 157.866 64.4115 158.721 65.7338 159.655H65.5783C67.1339 158.643 68.8452 157.477 70.7898 156.232L70.8676 156.154L70.9454 156.232C73.0455 157.477 74.9123 158.643 76.5458 159.655H76.3902C77.6348 158.643 78.646 157.866 79.4238 157.243C79.735 157.01 80.0461 156.777 80.2794 156.543C80.3572 156.388 80.5128 156.31 80.5128 156.31Z" fill="#E0E0E0"/>
<path d="M80.5128 154.365C80.5128 154.365 80.435 154.443 80.2794 154.677C80.0461 154.91 79.8127 155.143 79.5016 155.377C78.7238 155.999 77.7904 156.854 76.5458 157.866L76.468 157.943L76.3902 157.866C74.7568 156.854 72.8122 155.688 70.7898 154.443H70.9454C69.0008 155.688 67.2117 156.854 65.7338 157.866L65.656 157.943L65.5783 157.866C64.2559 156.854 63.167 155.999 62.3891 155.377C62.0002 155.065 61.7668 154.832 61.5335 154.677C61.3001 154.521 61.2224 154.443 61.2224 154.365C61.2224 154.365 61.3779 154.443 61.5335 154.599C61.7668 154.754 62.078 154.988 62.4669 155.299C63.3225 155.921 64.4115 156.777 65.7338 157.71H65.5783C67.1339 156.699 68.8452 155.532 70.7898 154.288L70.8676 154.21L70.9454 154.288C73.0455 155.532 74.9123 156.699 76.5458 157.71H76.3902C77.6348 156.699 78.646 155.921 79.4238 155.299C79.735 155.065 80.0461 154.832 80.2794 154.599C80.3572 154.443 80.5128 154.365 80.5128 154.365Z" fill="#E0E0E0"/>
<path d="M80.5128 158.332C80.5128 158.332 80.435 158.41 80.2794 158.644C80.0461 158.877 79.8127 159.11 79.5016 159.344C78.7238 159.966 77.7904 160.822 76.5458 161.833L76.468 161.91L76.3902 161.833C74.7568 160.822 72.8122 159.655 70.7898 158.41H70.9454C69.0008 159.655 67.2117 160.822 65.7338 161.833L65.656 161.91L65.5783 161.833C64.2559 160.822 63.167 159.966 62.3891 159.344C62.0002 159.032 61.7668 158.799 61.5335 158.644C61.3001 158.488 61.2224 158.41 61.2224 158.332C61.2224 158.332 61.3779 158.41 61.5335 158.566C61.7668 158.721 62.078 158.955 62.4669 159.266C63.3225 159.888 64.4115 160.744 65.7338 161.677H65.5783C67.1339 160.666 68.8452 159.499 70.7898 158.255L70.8676 158.177L70.9454 158.255C73.0455 159.499 74.9123 160.666 76.5458 161.677H76.3902C77.6348 160.666 78.646 159.888 79.4238 159.266C79.735 159.032 80.0461 158.799 80.2794 158.566C80.3572 158.41 80.5128 158.332 80.5128 158.332Z" fill="#E0E0E0"/>
<path d="M244.714 102.95L285.318 125.429L283.762 128.307L243.548 105.439L244.714 102.95Z" fill="#5E79B7"/>
<path d="M242.692 100.849L244.559 97.9709L245.648 98.671L244.014 101.549L242.692 100.849Z" fill="#5E79B7"/>
<path d="M280.651 121.929L282.752 123.096L275.984 166.499H272.795L280.651 121.929Z" fill="#5E79B7"/>
<path d="M263.383 171.01C263.383 171.01 268.361 166.032 274.973 166.343C281.585 166.732 285.007 170.933 285.007 170.933L263.383 171.01Z" fill="#5E79B7"/>
<path d="M242.77 120.529L226.668 111.273L231.335 103.261C233.902 98.8272 239.58 97.2716 244.014 99.8384C248.448 102.405 250.003 108.084 247.437 112.517L242.77 120.529Z" fill="#5E79B7"/>
</svg>
